<svg width="1320" height="201" viewBox="0 0 1320 201" fill="none" xmlns="http://www.w3.org/2000/svg">
<g opacity="0.8" clip-path="url(#clip0_929_2898)">
<rect width="1320" height="201" fill="white"/>
<g opacity="0.9">
<path d="M1319.79 -150H0.206299V507H1319.79V-150Z" fill="url(#paint0_linear_929_2898)"/>
<path fill-rule="evenodd" clip-rule="evenodd" d="M1062.98 52.8026L1118.58 43.5408L1132.73 80.862L1077.21 90.1695L1062.98 52.8026Z" fill="url(#paint1_linear_929_2898)"/>
<path fill-rule="evenodd" clip-rule="evenodd" d="M1319.79 177.131V212.308L1307.29 179.23L1319.79 177.131Z" fill="url(#paint2_linear_929_2898)"/>
<path fill-rule="evenodd" clip-rule="evenodd" d="M78.479 196.658L134.075 187.396L148.231 224.718L92.6356 234.025L78.479 196.658Z" fill="url(#paint3_linear_929_2898)"/>
<path fill-rule="evenodd" clip-rule="evenodd" d="M820.532 72.6497L876.059 63.3423L890.216 100.709L834.689 109.971L820.532 72.6497Z" fill="url(#paint4_linear_929_2898)"/>
<path fill-rule="evenodd" clip-rule="evenodd" d="M877.641 19.7245L933.167 10.4626L947.324 47.7838L891.797 57.0914L877.641 19.7245Z" fill="url(#paint5_linear_929_2898)"/>
<path fill-rule="evenodd" clip-rule="evenodd" d="M224.17 96.6029L279.766 87.3411L293.922 124.662L238.327 133.97L224.17 96.6029Z" fill="url(#paint6_linear_929_2898)"/>
<path fill-rule="evenodd" clip-rule="evenodd" d="M411.366 207.015L466.893 197.708L481.05 235.075L425.523 244.382L411.366 207.015Z" fill="url(#paint7_linear_929_2898)"/>
<path fill-rule="evenodd" clip-rule="evenodd" d="M475.964 196.203L531.491 186.941L545.648 224.308L490.121 233.569L475.964 196.203Z" fill="url(#paint8_linear_929_2898)"/>
<path fill-rule="evenodd" clip-rule="evenodd" d="M540.562 185.434L596.089 176.127L610.245 213.494L554.718 222.756L540.562 185.434Z" fill="url(#paint9_linear_929_2898)"/>
<path fill-rule="evenodd" clip-rule="evenodd" d="M605.092 174.622L660.687 165.361L674.844 202.682L619.248 211.989L605.092 174.622Z" fill="url(#paint10_linear_929_2898)"/>
<path fill-rule="evenodd" clip-rule="evenodd" d="M669.69 163.854L725.285 154.547L739.442 191.914L683.846 201.176L669.69 163.854Z" fill="url(#paint11_linear_929_2898)"/>
<path fill-rule="evenodd" clip-rule="evenodd" d="M734.769 154.318L790.295 145.056L804.04 181.1L748.444 190.407L734.769 154.318Z" fill="url(#paint12_linear_929_2898)"/>
<path fill-rule="evenodd" clip-rule="evenodd" d="M802.735 142.73L858.33 133.423L872.075 169.74L816.479 179.002L802.735 142.73Z" fill="url(#paint13_linear_929_2898)"/>
<path fill-rule="evenodd" clip-rule="evenodd" d="M869.326 131.46L924.921 122.153L939.078 159.519L883.482 168.781L869.326 131.46Z" fill="url(#paint14_linear_929_2898)"/>
<path fill-rule="evenodd" clip-rule="evenodd" d="M932.686 121.24L988.213 111.978L1001.89 148.022L946.362 157.329L932.686 121.24Z" fill="url(#paint15_linear_929_2898)"/>
<path fill-rule="evenodd" clip-rule="evenodd" d="M1001.27 109.378L1056.87 100.116L1071.02 137.438L1015.43 146.745L1001.27 109.378Z" fill="url(#paint16_linear_929_2898)"/>
<path fill-rule="evenodd" clip-rule="evenodd" d="M1214.99 106.412L1270.52 97.1501L1284.06 132.738L1228.46 141.999L1214.99 106.412Z" fill="url(#paint17_linear_929_2898)"/>
<path fill-rule="evenodd" clip-rule="evenodd" d="M1167.3 -27.0411L1222.83 -36.3486L1236.09 -1.44556L1180.5 7.86198L1167.3 -27.0411Z" fill="url(#paint18_linear_929_2898)"/>
<path fill-rule="evenodd" clip-rule="evenodd" d="M333.161 174.622L388.688 165.361L402.914 202.682L347.318 211.989L333.161 174.622Z" fill="url(#paint19_linear_929_2898)"/>
<path fill-rule="evenodd" clip-rule="evenodd" d="M397.76 163.854L453.287 154.547L467.444 191.914L411.917 201.176L397.76 163.854Z" fill="url(#paint20_linear_929_2898)"/>
<path fill-rule="evenodd" clip-rule="evenodd" d="M462.358 153.042L517.885 143.78L532.041 181.101L476.514 190.408L462.358 153.042Z" fill="url(#paint21_linear_929_2898)"/>
<path fill-rule="evenodd" clip-rule="evenodd" d="M526.887 142.274L582.482 132.966L596.639 170.333L541.043 179.595L526.887 142.274Z" fill="url(#paint22_linear_929_2898)"/>
<path fill-rule="evenodd" clip-rule="evenodd" d="M591.485 131.46L647.081 122.198L661.237 159.519L605.642 168.827L591.485 131.46Z" fill="url(#paint23_linear_929_2898)"/>
<path fill-rule="evenodd" clip-rule="evenodd" d="M656.083 120.693L711.61 111.385L725.766 148.707L670.239 158.014L656.083 120.693Z" fill="url(#paint24_linear_929_2898)"/>
<path fill-rule="evenodd" clip-rule="evenodd" d="M720.682 109.879L776.209 100.572L790.366 137.939L734.839 147.201L720.682 109.879Z" fill="url(#paint25_linear_929_2898)"/>
<path fill-rule="evenodd" clip-rule="evenodd" d="M317.699 129.91L373.226 120.648L387.382 157.969L331.856 167.277L317.699 129.91Z" fill="url(#paint26_linear_929_2898)"/>
<path fill-rule="evenodd" clip-rule="evenodd" d="M382.298 119.142L437.825 109.834L451.981 147.201L396.454 156.463L382.298 119.142Z" fill="url(#paint27_linear_929_2898)"/>
<path fill-rule="evenodd" clip-rule="evenodd" d="M446.827 108.329L502.422 99.0671L516.579 136.388L461.052 145.696L446.827 108.329Z" fill="url(#paint28_linear_929_2898)"/>
<path fill-rule="evenodd" clip-rule="evenodd" d="M511.424 97.5153L567.02 88.2534L581.176 125.62L525.581 134.882L511.424 97.5153Z" fill="url(#paint29_linear_929_2898)"/>
<path fill-rule="evenodd" clip-rule="evenodd" d="M576.023 86.7482L631.55 77.4407L645.775 114.808L590.18 124.069L576.023 86.7482Z" fill="url(#paint30_linear_929_2898)"/>
<path fill-rule="evenodd" clip-rule="evenodd" d="M640.62 75.935L696.147 66.6731L710.304 103.994L654.777 113.302L640.62 75.935Z" fill="url(#paint31_linear_929_2898)"/>
<path fill-rule="evenodd" clip-rule="evenodd" d="M705.7 66.5357L761.295 57.2283L775.452 94.595L719.856 103.903L705.7 66.5357Z" fill="url(#paint32_linear_929_2898)"/>
<path fill-rule="evenodd" clip-rule="evenodd" d="M367.109 76.3457L422.705 67.0383L436.861 104.405L381.266 113.667L367.109 76.3457Z" fill="url(#paint33_linear_929_2898)"/>
<path fill-rule="evenodd" clip-rule="evenodd" d="M431.708 65.5324L487.303 56.2705L501.46 93.5918L445.864 102.899L431.708 65.5324Z" fill="url(#paint34_linear_929_2898)"/>
<path fill-rule="evenodd" clip-rule="evenodd" d="M496.306 54.7194L551.833 45.4575L565.989 82.7787L510.462 92.0862L496.306 54.7194Z" fill="url(#paint35_linear_929_2898)"/>
<path fill-rule="evenodd" clip-rule="evenodd" d="M560.905 43.9521L616.432 34.6445L630.588 72.0114L575.061 81.2733L560.905 43.9521Z" fill="url(#paint36_linear_929_2898)"/>
<path fill-rule="evenodd" clip-rule="evenodd" d="M625.502 33.138L681.029 23.876L695.185 61.1973L639.659 70.5047L625.502 33.138Z" fill="url(#paint37_linear_929_2898)"/>
<path fill-rule="evenodd" clip-rule="evenodd" d="M737.45 20.8195L793.045 11.512L807.202 48.8788L751.606 58.1407L737.45 20.8195Z" fill="url(#paint38_linear_929_2898)"/>
<path fill-rule="evenodd" clip-rule="evenodd" d="M804.797 9.4589L860.323 0.151367L873.999 36.2407L818.472 45.5026L804.797 9.4589Z" fill="url(#paint39_linear_929_2898)"/>
<path fill-rule="evenodd" clip-rule="evenodd" d="M415.214 22.9635L470.741 13.7017L484.897 51.0229L429.371 60.3304L415.214 22.9635Z" fill="url(#paint40_linear_929_2898)"/>
<path fill-rule="evenodd" clip-rule="evenodd" d="M479.745 12.1513L535.34 2.8894L549.497 40.2106L493.901 49.5181L479.745 12.1513Z" fill="url(#paint41_linear_929_2898)"/>
<path fill-rule="evenodd" clip-rule="evenodd" d="M544.341 1.38406L599.868 -7.92334L614.093 29.4434L558.498 38.7053L544.341 1.38406Z" fill="url(#paint42_linear_929_2898)"/>
<path fill-rule="evenodd" clip-rule="evenodd" d="M608.941 -9.4293L664.467 -18.6912L678.624 18.63L623.097 27.9376L608.941 -9.4293Z" fill="url(#paint43_linear_929_2898)"/>
<path fill-rule="evenodd" clip-rule="evenodd" d="M723.086 -23.5735L778.682 -32.8809L792.838 4.48586L737.243 13.7479L723.086 -23.5735Z" fill="url(#paint44_linear_929_2898)"/>
<path fill-rule="evenodd" clip-rule="evenodd" d="M788.715 -31.6036L844.311 -40.8655L858.467 -3.54429L802.872 5.76325L788.715 -31.6036Z" fill="url(#paint45_linear_929_2898)"/>
<path fill-rule="evenodd" clip-rule="evenodd" d="M407.037 -25.9459L462.563 -35.2078L476.72 2.11343L421.193 11.421L407.037 -25.9459Z" fill="url(#paint46_linear_929_2898)"/>
<path fill-rule="evenodd" clip-rule="evenodd" d="M471.636 -36.7131L527.163 -46.0205L541.32 -8.65365L485.793 0.608219L471.636 -36.7131Z" fill="url(#paint47_linear_929_2898)"/>
<path fill-rule="evenodd" clip-rule="evenodd" d="M258.531 5.9468L314.058 -3.3606L328.214 34.0061L272.688 43.3137L258.531 5.9468Z" fill="url(#paint48_linear_929_2898)"/>
<path fill-rule="evenodd" clip-rule="evenodd" d="M954.677 162.531L1010.2 153.223L1024.36 190.59L968.834 199.852L954.677 162.531Z" fill="url(#paint49_linear_929_2898)"/>
<path fill-rule="evenodd" clip-rule="evenodd" d="M890.423 173.253L946.019 163.991L960.175 201.313L904.58 210.62L890.423 173.253Z" fill="url(#paint50_linear_929_2898)"/>
<path fill-rule="evenodd" clip-rule="evenodd" d="M826.237 183.975L881.764 174.713L895.92 212.034L840.393 221.341L826.237 183.975Z" fill="url(#paint51_linear_929_2898)"/>
<path fill-rule="evenodd" clip-rule="evenodd" d="M757.859 195.426L813.386 186.119L827.543 223.486L772.016 232.748L757.859 195.426Z" fill="url(#paint52_linear_929_2898)"/>
<path fill-rule="evenodd" clip-rule="evenodd" d="M693.467 205.692L748.994 196.385L763.15 233.751L707.623 243.013L693.467 205.692Z" fill="url(#paint53_linear_929_2898)"/>
<path d="M1118.4 43.5356L1062.83 52.824L1076.99 90.1647L1132.56 80.8763L1118.4 43.5356Z" fill="#006DB8"/>
<path fill-rule="evenodd" clip-rule="evenodd" d="M1307.29 179.23L1319.79 177.131V212.308L1307.29 179.23Z" fill="#006DB8"/>
<path d="M133.965 187.403L78.3882 196.695L92.552 234.036L148.129 224.744L133.965 187.403Z" fill="#006DB8"/>
<path d="M875.886 63.3318L820.309 72.6201L834.467 109.961L890.044 100.673L875.886 63.3318Z" fill="#006DB8"/>
<path d="M933.058 10.5038L877.481 19.7959L891.645 57.1366L947.221 47.8445L933.058 10.5038Z" fill="#006DB8"/>
<path d="M279.677 87.2693L224.1 96.5576L238.258 133.898L293.835 124.61L279.677 87.2693Z" fill="#006DB8"/>
<path d="M467.036 197.667L411.459 206.963L425.629 244.304L481.206 235.008L467.036 197.667Z" fill="#006DB8"/>
<path d="M531.357 186.896L475.78 196.184L489.938 233.525L545.515 224.236L531.357 186.896Z" fill="#006DB8"/>
<path d="M595.919 176.103L540.342 185.392L554.5 222.732L610.077 213.444L595.919 176.103Z" fill="#006DB8"/>
<path d="M660.575 165.293L604.998 174.581L619.156 211.922L674.733 202.634L660.575 165.293Z" fill="#006DB8"/>
<path d="M725.137 154.503L669.56 163.792L683.718 201.132L739.295 191.844L725.137 154.503Z" fill="#006DB8"/>
<path d="M790.176 145.004L734.599 154.293L748.271 190.35L803.848 181.062L790.176 145.004Z" fill="#006DB8"/>
<path d="M858.213 133.378L802.636 142.666L816.391 178.945L871.968 169.657L858.213 133.378Z" fill="#006DB8"/>
<path d="M924.769 122.114L869.192 131.402L883.35 168.743L938.927 159.455L924.769 122.114Z" fill="#006DB8"/>
<path d="M988.178 111.941L932.6 121.233L946.277 157.291L1001.85 147.999L988.178 111.941Z" fill="#006DB8"/>
<path d="M1056.71 100.085L1001.13 109.374L1015.29 146.714L1070.87 137.426L1056.71 100.085Z" fill="#006DB8"/>
<path d="M1270.38 97.1725L1214.8 106.465L1228.31 142.08L1283.89 132.788L1270.38 97.1725Z" fill="#006DB8"/>
<path d="M1222.97 -36.2614L1167.39 -26.9731L1180.62 7.93788L1236.21 -1.35042L1222.97 -36.2614Z" fill="#006DB8"/>
<path d="M388.738 165.427L333.156 174.711L347.308 212.056L402.891 202.771L388.738 165.427Z" fill="#006DB8"/>
<path d="M453.157 154.499L397.58 163.787L411.738 201.128L467.315 191.84L453.157 154.499Z" fill="#006DB8"/>
<path d="M517.73 143.755L462.153 153.043L476.311 190.384L531.888 181.095L517.73 143.755Z" fill="#006DB8"/>
<path d="M582.344 132.921L526.767 142.209L540.925 179.55L596.502 170.261L582.344 132.921Z" fill="#006DB8"/>
<path d="M646.948 122.152L591.371 131.44L605.529 168.781L661.106 159.493L646.948 122.152Z" fill="#006DB8"/>
<path d="M711.727 111.299L656.149 120.595L670.319 157.936L725.896 148.64L711.727 111.299Z" fill="#006DB8"/>
<path d="M776.037 100.556L720.46 109.844L734.618 147.185L790.195 137.897L776.037 100.556Z" fill="#006DB8"/>
<path d="M373.141 120.65L317.564 129.942L331.728 167.283L387.305 157.991L373.141 120.65Z" fill="#006DB8"/>
<path d="M437.697 109.786L382.12 119.075L396.278 156.415L451.855 147.127L437.697 109.786Z" fill="#006DB8"/>
<path d="M502.266 99.0464L446.689 108.335L460.847 145.675L516.424 136.387L502.266 99.0464Z" fill="#006DB8"/>
<path d="M567.043 88.3368L511.46 97.6213L525.612 134.966L581.195 125.681L567.043 88.3368Z" fill="#006DB8"/>
<path d="M631.43 77.3855L575.854 86.6738L590.012 124.015L645.588 114.726L631.43 77.3855Z" fill="#006DB8"/>
<path d="M696.013 66.6379L640.436 75.9263L654.594 113.267L710.171 103.979L696.013 66.6379Z" fill="#006DB8"/>
<path d="M761.125 57.2088L705.548 66.4971L719.706 103.838L775.283 94.5495L761.125 57.2088Z" fill="#006DB8"/>
<path d="M422.622 67.0316L367.045 76.3237L381.209 113.664L436.786 104.372L422.622 67.0316Z" fill="#006DB8"/>
<path d="M487.159 56.1839L431.582 65.4722L445.74 102.813L501.317 93.5246L487.159 56.1839Z" fill="#006DB8"/>
<path d="M551.677 45.4436L496.1 54.7319L510.258 92.0726L565.835 82.7843L551.677 45.4436Z" fill="#006DB8"/>
<path d="M616.344 34.562L560.767 43.8503L574.925 81.191L630.502 71.9027L616.344 34.562Z" fill="#006DB8"/>
<path d="M681.096 23.7433L625.519 33.0354L639.682 70.3761L695.259 61.084L681.096 23.7433Z" fill="#006DB8"/>
<path d="M792.93 11.5387L737.354 20.8308L751.517 58.1715L807.094 48.8794L792.93 11.5387Z" fill="#006DB8"/>
<path d="M860.196 0.168486L804.619 9.45679L818.29 45.5144L873.867 36.2261L860.196 0.168486Z" fill="#006DB8"/>
<path d="M470.755 13.7407L415.172 23.0251L429.325 60.3697L484.907 51.0852L470.755 13.7407Z" fill="#006DB8"/>
<path d="M535.206 2.85184L479.629 12.1401L493.787 49.4808L549.364 40.1925L535.206 2.85184Z" fill="#006DB8"/>
<path d="M599.945 -7.87898L544.362 1.40552L558.514 38.7501L614.097 29.4656L599.945 -7.87898Z" fill="#006DB8"/>
<path d="M664.34 -18.7241L608.763 -9.43579L622.921 27.9048L678.498 18.6165L664.34 -18.7241Z" fill="#006DB8"/>
<path d="M778.519 -32.8974L722.942 -23.6091L737.1 13.7316L792.677 4.44327L778.519 -32.8974Z" fill="#006DB8"/>
<path d="M844.423 -40.8543L788.841 -31.5698L802.993 5.77474L858.575 -3.50976L844.423 -40.8543Z" fill="#006DB8"/>
<path d="M462.416 -35.2187L406.839 -25.9304L420.997 11.4103L476.574 2.12198L462.416 -35.2187Z" fill="#006DB8"/>
<path d="M527.078 -46.0184L471.501 -36.7263L485.665 0.614391L541.242 -8.67772L527.078 -46.0184Z" fill="#006DB8"/>
<path d="M314.125 -3.47669L258.548 5.81543L272.711 43.1561L328.288 33.864L314.125 -3.47669Z" fill="#006DB8"/>
<path d="M1010.08 153.256L954.5 162.548L968.664 199.888L1024.24 190.596L1010.08 153.256Z" fill="#006DB8"/>
<path d="M945.908 163.914L890.331 173.202L904.489 210.543L960.066 201.254L945.908 163.914Z" fill="#006DB8"/>
<path d="M881.67 174.628L826.093 183.917L840.251 221.257L895.828 211.969L881.67 174.628Z" fill="#006DB8"/>
<path d="M813.237 186.079L757.66 195.367L771.818 232.708L827.395 223.42L813.237 186.079Z" fill="#006DB8"/>
<path d="M749.118 196.288L693.541 205.584L707.71 242.925L763.287 233.629L749.118 196.288Z" fill="#006DB8"/>
<path d="M1319.79 266.373C1297.32 267.651 1273.34 268.609 1244.27 269.202C1186.41 270.981 1160.7 269.521 1131.08 267.879C1105.8 265.552 1078.17 262.312 1023.88 259.301C939.765 252.457 897.982 261.719 850.496 275.817C827.543 283.802 803.696 293.018 772.634 302.189C737.449 313.458 708.174 315.648 678.555 312.637C655.258 309.854 633.061 303.238 608.665 295.482C573.617 283.346 535.339 268.38 486.547 258.571C437.549 247.712 392.536 257.157 349.036 275.68C323.884 287.087 299.419 301.778 274.473 316.743C225.062 347.859 177.232 380.07 124.729 386.412C109.267 387.964 95.9351 384.314 84.8709 376.694C73.5319 368.71 63.5674 356.437 54.8398 340.879C45.4936 325.275 37.0409 306.523 29.4129 285.809C21.7848 264.867 14.6377 242.101 7.90306 218.467C5.36037 210.117 2.81771 201.631 0.206299 193.099V204.597C1.58073 209.251 2.88644 213.904 4.19215 218.512C11.3392 242.192 18.5548 265.095 26.1142 285.946C33.7422 306.751 41.9888 325.549 51.3349 341.289C60.2687 356.847 70.2333 369.212 81.7785 377.333C93.5299 385.454 107.893 389.15 125.142 387.37C179.225 380.846 227.262 348.407 276.878 316.971C302.03 302.052 326.289 287.452 351.166 276.091C393.773 258.024 437.48 248.716 484.967 259.21C533.553 268.837 571.624 283.847 606.466 295.938C630.862 303.74 653.471 310.401 676.768 313.184C707.693 316.287 737.999 314.005 774.077 302.234C805.552 293.064 829.398 283.802 852.145 275.909C899.15 261.947 940.521 252.777 1022.92 259.347C1022.92 259.347 1022.92 259.347 1023.12 259.347C1076.73 262.267 1104.21 265.506 1129.5 267.924C1159.4 269.567 1185.51 271.027 1244.27 269.156C1273.34 268.609 1297.46 267.65 1319.79 266.419V266.373Z" fill="#44C8F5"/>
<path d="M1319.79 266.692C1301.03 267.559 1280.76 268.197 1257.33 268.334C1257.12 268.334 1257.12 268.334 1257.12 268.334C1201.04 269.657 1174.65 268.471 1145.45 267.011C1119.95 265.141 1092.74 262.266 1039.75 260.167C957.151 254.556 916.881 262.677 871.181 274.904C849.053 281.839 825.687 289.869 795.725 297.899C756.141 309.579 722.537 310.72 689.207 306.522C668.934 303.602 649.348 298.584 628.663 292.744C595.127 282.524 558.567 269.977 514.105 261.627C459.815 250.495 413.084 262.403 366.972 282.752C347.318 291.786 328.695 302.553 310.14 313.457C262.31 341.79 215.511 371.264 165.138 376.42C148.782 377.287 135.313 373.637 123.08 366.291C110.642 358.763 99.9899 347.448 90.4376 333.35C80.6792 319.115 71.9516 302.051 63.705 283.162C55.0461 263.772 46.1124 242.967 37.6597 221.158C30.0316 198.893 21.9912 175.67 12.6451 152.675C8.59055 142.272 4.39854 131.916 0.0690918 121.696V129.543C3.299 137.208 6.39146 144.964 9.4152 152.721C18.1428 175.579 26.5955 198.847 34.1548 221.249C42.6075 243.058 51.5414 264.091 60.4064 283.254C68.653 302.188 77.3119 319.434 87.3452 333.715C96.6913 347.859 107.549 359.311 120.194 366.884C132.839 374.549 147.614 378.427 164.657 377.515C164.657 377.515 164.657 377.515 165.069 377.469C216.954 372.085 264.371 342.429 312.408 313.777C330.962 302.827 349.792 292.196 369.034 283.117C414.253 263.224 460.159 251.453 512.249 262.084C556.506 270.479 593.272 282.98 626.327 293.109C647.424 299.04 667.01 304.104 687.283 306.979C721.712 311.222 756.141 310.081 797.031 297.899C827.199 289.915 850.633 281.794 872.693 274.904C917.98 262.859 957.77 254.738 1038.65 260.167C1091.43 262.312 1118.23 265.095 1143.73 267.057C1173.14 268.562 1199.74 269.657 1256.91 268.243C1280.69 268.061 1300.96 267.467 1319.59 266.646V266.692H1319.79Z" fill="#44C8F5"/>
<path d="M1319.79 267.377C1304.74 267.879 1288.39 268.199 1269.76 268.107C1215.2 268.974 1188.4 268.198 1159.6 266.738C1133.7 265.461 1106.41 263.225 1054.53 261.765C973.851 257.613 935.573 264.594 890.973 275.088C870.425 280.928 847.197 287.954 817.922 294.98C769.611 308.075 728.859 306.752 685.702 299.999C673.057 297.763 660.687 294.935 647.562 291.923C615.744 283.711 580.283 273.628 538.432 266.465C478.507 255.15 427.585 271.666 377.762 294.935C366.835 300.318 355.908 306.113 344.775 312.09C299.763 337.685 253.445 364.193 203.965 368.208C188.503 368.528 173.865 364.878 160.808 358.125C147.339 351.145 135.794 340.925 125.142 328.332C125.142 328.332 125.142 328.332 125.142 328.287C104.732 303.01 86.8642 268.198 67.9658 230.102C67.5535 229.235 67.0724 228.368 66.6601 227.547C66.6601 227.547 66.6601 227.547 66.6601 227.501C64.7359 222.802 62.7429 218.011 61.0249 213.357C45.8375 176.173 30.169 137.027 9.48388 102.352C6.46014 97.2873 3.299 92.3142 0.0690918 87.4324V92.6335C2.06201 95.8273 4.05493 99.0666 5.97913 102.306C26.8704 137.027 42.5389 176.264 57.7263 213.357C59.4443 218.102 61.4372 222.802 63.3614 227.547C63.3614 227.592 63.3614 227.592 63.3614 227.592C63.3614 227.638 63.3614 227.638 63.3614 227.638C63.7737 228.596 64.2548 229.372 64.6671 230.193C83.5655 268.427 101.364 303.33 122.049 328.652C122.049 328.697 122.049 328.697 122.049 328.697C132.701 341.472 144.453 351.692 157.922 358.718C171.391 365.745 186.854 369.623 203.69 369.212C203.69 369.212 203.69 369.212 203.897 369.212C254.888 365.106 301.412 338.324 347.112 312.363C358.039 306.478 368.759 300.775 380.098 295.254C429.096 272.396 479.126 256.062 537.058 267.012C578.428 274.038 613.957 284.167 645.706 292.334C658.351 295.345 670.927 298.128 683.847 300.364C727.828 307.345 769.679 308.577 819.09 295.072C849.053 288.045 872.006 281.019 892.553 275.133C936.741 264.822 974.332 257.887 1053.7 261.902C1105.18 263.271 1132.18 265.552 1157.89 266.921C1187.09 268.244 1214.17 269.065 1269.56 268.199C1288.18 268.244 1304.54 267.925 1319.59 267.468V267.377H1319.79Z" fill="#44C8F5"/>
<path d="M1319.79 267.788C1308.39 267.924 1296.08 267.924 1282.48 267.696C1229.7 268.335 1202.83 267.788 1174.04 266.738C1148.06 265.689 1120.43 264.001 1069.17 263.134C990 260.305 953.715 266.145 910.627 275.133C890.492 280.061 869.325 285.992 839.981 292.151C778.132 307.436 726.935 301.368 666.804 291.148C635.879 284.76 603.03 276.867 563.309 270.981C492.939 258.799 435.625 283.848 379.205 310.949C334.811 333.716 291.791 357.486 242.312 360.041C225.956 359.676 211.593 356.209 198.536 350.049C185.273 343.708 172.835 334.491 161.358 323.268C138.955 300.774 118.338 270.069 96.5538 236.078C95.6604 235.394 95.2481 234.573 95.0419 233.751C92.6367 228.869 90.2315 224.033 88.3073 219.106C73.326 185.617 57.039 150.121 35.8729 118.548C25.221 102.26 13.401 86.9759 0.0690918 73.334V76.6645C12.0266 89.4395 22.541 103.583 32.3681 118.594C53.7404 150.075 69.5464 185.526 85.0087 219.106C86.9329 224.079 89.3381 228.961 91.7433 233.843C91.7433 233.888 91.7433 233.888 91.7433 233.888C92.1557 234.664 92.6367 235.485 93.2552 236.261C114.971 270.343 135.656 301.094 158.266 323.633C169.811 334.993 182.387 344.209 195.925 350.688C209.188 357.03 224.444 360.68 241.693 361.045C241.693 361.045 241.693 361.045 241.9 361.045C293.166 358.399 336.804 334.309 381.404 311.268C437.137 284.441 493.557 259.894 561.797 271.574C601.037 277.414 634.092 285.262 665.017 291.649C726.248 301.961 777.857 308.074 841.218 292.334C870.7 286.129 891.935 280.198 912.276 275.27C954.883 266.373 990.55 260.624 1068.62 263.316C1119.2 264.138 1146.89 265.871 1172.39 266.829C1201.59 267.924 1228.67 268.381 1282.13 267.788C1295.88 268.061 1308.25 268.061 1319.73 267.924V267.788H1319.79Z" fill="#44C8F5"/>
<path d="M1319.79 268.061C1312.03 268.061 1303.78 267.97 1294.85 267.788C1294.64 267.788 1294.64 267.788 1294.64 267.788C1243.79 268.061 1216.99 267.331 1188.4 266.738C1162.22 265.689 1134.31 264.685 1083.94 264.366C1007.18 262.723 971.995 267.559 930.693 275.133C910.833 279.331 889.804 284.213 861.834 289.596C799.573 303.193 746.176 298.63 683.433 290.372C654.021 285.627 623.302 279.833 587.773 275.133C521.114 264.822 466.412 286.22 414.183 309.58C370.477 329.746 328.282 350.825 279.902 352.239C217.159 348.179 181.905 308.485 135.587 255.834C131.257 250.541 126.447 245.066 121.636 239.591C121.224 238.998 120.743 238.359 120.743 237.675C103.769 204.141 85.3515 167.093 63.1545 134.152C50.7159 116.906 37.2466 100.891 21.5094 86.8389C14.706 80.8164 7.55899 75.159 0.0683594 69.9121V72.4671C6.322 76.984 12.3008 81.8658 18.0046 86.9758C33.7418 100.891 47.8984 117.043 59.6498 134.015C82.0529 167.048 100.333 204.095 117.238 237.675C117.651 238.359 117.857 239.09 118.338 239.728C118.338 239.774 118.338 239.774 118.338 239.774C123.148 245.523 127.89 250.815 132.288 255.971C179.019 308.941 214.479 349 279.214 353.106C329.381 351.692 372.195 330.248 416.314 309.854C468.13 286.768 521.663 265.689 586.605 275.589C621.722 280.243 652.646 286.037 681.578 290.782C745.214 299.132 799.229 303.603 863.071 289.551C891.247 284.213 912.276 279.331 932.136 275.133C973.025 267.651 1007.94 262.814 1083.46 264.411C1133.42 264.685 1161.12 265.689 1187.02 266.693C1216.23 267.286 1242.83 267.97 1294.57 267.742C1303.57 267.924 1311.89 268.016 1319.72 268.016V268.061H1319.79Z" fill="#44C8F5"/>
<path d="M1319.79 268.061C1315.67 268.015 1311.34 267.924 1306.87 267.832C1258.43 267.696 1231.62 266.966 1203.72 266.646C1176.72 265.962 1149.23 265.232 1098.58 265.186C1023.54 264.639 989.656 268.836 949.935 274.95C930.9 278.509 910.627 282.524 883.757 286.995C819.502 299.268 763.082 296.12 697.041 289.641C670.446 286.356 642.82 282.341 612.926 278.828C548.396 270.251 497.68 288.455 446.964 308.347C406.075 325.959 364.155 344.437 317.08 344.619C251.933 338.095 212.761 303.739 162.32 256.928C157.99 252.959 153.592 248.898 149.95 245.339C145.414 237.766 140.604 230.101 135.793 222.207C121.225 198.209 106.243 172.978 88.582 149.664C77.2429 133.969 63.9797 118.958 48.5174 105.864C34.2234 93.8188 18.4175 83.3706 0.206299 75.0669V76.8007C16.9743 84.7394 31.8869 94.6857 45.425 106.092C60.6811 118.958 74.013 134.014 85.4894 149.755C102.876 173.069 117.926 198.346 132.495 222.39C137.305 230.329 142.047 238.039 146.858 245.522C146.858 245.568 146.858 245.568 146.858 245.568C146.858 245.659 146.858 245.659 146.858 245.659C151.668 249.993 155.585 253.643 159.021 257.248C210.15 304.424 249.252 339.053 315.5 345.577C315.5 345.623 315.5 345.623 315.912 345.577C365.185 345.395 407.586 326.597 449.3 308.621C498.917 289.094 548.946 271.163 611.277 279.376C641.376 282.797 668.796 286.767 695.391 290.052C762.326 296.576 819.159 299.724 884.719 287.041C911.795 282.569 932.343 278.463 951.172 274.996C990.481 268.882 1023.95 264.73 1098.3 265.232C1148.27 265.323 1175.75 266.053 1202.56 266.646C1230.66 267.057 1257.74 267.741 1306.6 267.878C1311.13 267.969 1315.53 268.061 1319.72 268.152V268.061H1319.79Z" fill="#44C8F5"/>
<path d="M1319.79 267.742C1284.27 266.966 1260.49 266.692 1237.53 266.373C1208.05 266.236 1179.53 265.871 1126.69 266.738C1054.25 267.878 1024.36 270.433 985.464 274.768C968.834 276.867 950.485 279.33 925.402 282.478C849.602 293.474 777.651 292.197 691.131 287.725C680.685 287.041 670.24 286.174 659.107 285.353C601.999 279.878 557.193 292.333 513.967 305.93C474.178 318.842 435.35 332.575 387.589 330.339C319.623 319.48 275.229 296.257 213.792 261.582C210.769 259.803 207.676 258.069 204.859 256.29C195.306 245.522 185.479 233.797 175.721 221.934C163.351 207.79 151.325 193.373 138.749 179.685C135.725 175.99 132.014 172.385 128.509 168.827C125.211 165.314 121.293 161.8 117.857 158.378C98.2718 140.63 76.006 124.844 49.4109 113.803C32.9177 107.142 16.5621 103.765 0.275146 103.127V104.359C15.8062 104.952 31.2685 108.1 46.7995 114.533C73.1885 125.346 95.6604 140.995 114.627 158.652C118.545 162.074 122.256 165.496 125.76 169.1C129.059 172.659 132.495 176.218 135.794 179.822C135.794 179.914 135.794 179.913 135.794 179.913C148.438 193.601 160.396 208.018 172.56 222.253C182.318 234.07 192.351 245.75 201.904 256.655C201.904 256.7 201.904 256.7 201.904 256.7C201.904 256.746 201.904 256.746 201.904 256.746C201.904 256.792 201.904 256.792 202.316 256.837C205.133 258.662 208.226 260.487 211.25 262.13C272.618 296.896 317.699 320.347 386.352 331.16C386.352 331.206 386.352 331.206 386.352 331.206C386.352 331.297 386.352 331.297 386.764 331.206C436.037 333.487 475.14 319.526 515.96 306.34C558.361 293.063 602.48 280.745 658.076 285.992C668.728 286.858 679.655 287.588 690.1 288.364C777.101 292.835 849.671 293.93 926.364 282.752C951.448 279.65 969.865 277.14 986.839 274.996C1025.05 270.662 1054.53 268.152 1126.55 266.92C1178.92 266.053 1207.5 266.373 1236.71 266.51C1260.01 266.875 1283.99 267.103 1319.86 267.878V267.742H1319.79Z" fill="#44C8F5"/>
<path d="M1319.79 267.422C1295.81 266.829 1277.46 266.418 1259.8 266.418C1226.88 266.008 1197.61 266.19 1140.43 267.331C1067.52 269.293 1039.14 271.3 1000.51 274.722C984.983 276.319 968.421 278.053 946.362 280.334C905.335 285.079 865.133 288.273 821.976 289.961C778.338 291.466 732.089 290.691 682.197 288.045C628.113 283.984 586.812 293.93 545.785 304.652C507.988 315.556 469.573 326.871 421.812 323.586C386.283 317.199 356.458 309.534 327.045 299.861C297.632 289.459 266.708 277.003 231.247 261.308C219.084 250.541 207.126 238.587 195.787 226.36C161.839 191.502 126.585 154.592 76.4183 133.741C51.1975 123.475 25.5645 121.194 0.206299 124.342V125.711C24.8773 122.426 49.4794 124.479 74.013 134.288C123.767 154.957 158.609 191.73 192.763 226.633C204.309 238.815 216.06 250.815 228.224 261.673C228.224 261.719 228.224 261.765 228.224 261.765C228.224 261.856 228.224 261.856 228.636 261.765C264.165 277.596 295.09 290.098 324.708 300.409C354.327 310.173 384.359 317.883 420.3 324.408C420.3 324.408 420.3 324.408 420.506 324.453C469.779 327.738 508.882 316.15 547.297 305.063C587.705 294.478 628.526 284.577 681.304 288.455C730.989 291.101 777.651 291.831 821.495 290.326C864.721 288.546 905.473 285.307 946.98 280.516C968.834 278.281 985.602 276.41 1001.13 274.859C1039.75 271.346 1067.93 269.338 1140.36 267.377C1197.13 266.236 1226.33 266.053 1259.04 266.464C1276.84 266.464 1295.4 266.875 1319.72 267.468V267.422H1319.79Z" fill="#44C8F5"/>
<path d="M1319.79 267.195C1310.86 266.921 1302.61 266.693 1294.92 266.51C1251.07 266.282 1222.07 266.008 1154.59 267.651C1071.02 270.753 1048.48 272.122 998.727 275.772C988.9 276.502 978.386 277.46 966.222 278.464C926.707 282.205 885.887 285.718 842.867 288.364C799.229 290.965 753.392 292.015 705.424 290.326C653.952 287.589 615.949 295.391 577.534 303.649C540.425 312.546 503.934 321.671 455.141 317.291C446.001 315.42 435.075 313.276 424.217 310.949C367.109 298.128 320.929 286.494 256.468 266.236C241.899 255.788 228.155 244.063 214.479 231.972C182.455 202.635 147.407 171.793 101.845 153.406C70.0269 140.175 37.2468 140.312 4.26053 147.885C2.8861 148.205 1.51163 148.57 0.137207 148.889V150.44C2.19885 149.893 4.32924 149.345 6.39088 148.843C38.0714 141.726 69.0648 141.498 99.3709 153.953C144.727 172.203 179.156 203.091 211.799 232.246C225.475 244.428 239.219 256.245 253.788 266.601C253.788 266.647 253.788 266.647 253.788 266.647C253.788 266.693 253.788 266.693 253.788 266.693C253.788 266.738 253.788 266.738 253.994 266.738C318.729 287.041 365.116 298.813 422.155 311.679C431.295 313.641 440.916 315.557 453.286 317.975C453.286 318.021 453.286 318.021 453.286 318.021C503.865 322.446 540.974 313.139 578.977 304.151C616.568 295.938 653.884 288.228 704.462 290.828C752.43 292.562 798.886 291.33 842.73 288.73C885.681 285.992 926.57 282.479 966.497 278.646C978.936 277.551 989.656 276.685 999.002 275.909C1048.96 272.259 1071.02 270.845 1154.45 267.788C1221.66 266.054 1250.45 266.282 1294.3 266.465C1302.06 266.693 1310.45 266.966 1319.66 267.24V267.195H1319.79Z" fill="#44C8F5"/>
<path d="M1319.79 267.011C1301.72 266.509 1286.26 266.236 1270.73 266.281C1242.83 266.281 1214.65 266.738 1168.61 267.969C1121.46 270.023 1094.8 270.889 1070.82 272.121C1045.94 273.125 1024.98 274.038 986.357 276.729C971.514 277.824 956.464 278.965 941.139 280.288C874.754 286.128 802.322 293.337 727.278 292.424C679.723 290.782 644.4 296.576 610.52 302.736C572.998 309.671 537.607 316.742 489.227 311.176C438.442 299.77 397.072 293.018 349.998 284.668C329.106 280.744 307.734 276.319 282.857 270.889C264.371 260.624 246.916 248.305 229.735 235.621C199.498 212.398 168.092 188.035 127.547 172.294C97.0344 160.158 67.0718 159.564 35.8723 165.222C23.8461 167.549 11.9573 170.788 0.137207 174.666V176.4C12.5758 172.203 25.1518 168.69 37.8653 166.271C67.7591 160.842 96.141 161.481 125.141 172.887C165.275 188.536 196.818 212.763 227.124 235.986C244.304 248.716 261.759 261.08 280.246 271.437C280.246 271.483 280.246 271.483 280.246 271.483C280.246 271.528 280.246 271.619 280.246 271.619C280.246 271.665 280.246 271.665 280.452 271.619C305.947 277.14 327.526 281.474 348.211 285.489C395.491 293.748 436.93 300.5 487.647 311.861C487.647 311.906 487.647 311.906 487.647 311.906C537.332 317.518 573.136 310.401 611.345 303.283C644.538 297.169 679.723 291.421 726.316 292.926C801.772 293.839 874.685 286.447 941.276 280.516C956.807 279.147 971.857 278.053 986.701 276.958C1024.91 274.266 1045.87 273.353 1070.75 272.304C1094.52 271.072 1121.39 270.16 1168.54 268.106C1214.58 266.875 1242.55 266.373 1270.45 266.418C1285.98 266.373 1301.44 266.601 1319.79 267.148V267.011Z" fill="#44C8F5"/>
<path d="M1319.79 267.057C1281.65 266.19 1253 266.646 1203.04 267.696C1196.3 267.924 1188.88 268.152 1181.66 268.38C1126.69 270.981 1100.71 271.619 1074.25 272.486C1055.29 273.034 1036.52 273.444 1006.36 275.087C1005.94 275.178 1005.46 275.132 1005.26 275.178C977.561 276.684 948.492 279.056 917.705 281.976C864.24 287.497 806.376 293.976 749.475 294.067C706.318 293.382 673.538 297.58 642.132 301.777C606.122 306.979 570.937 312.134 521.939 305.473C464.9 291.512 419.544 287.588 363.536 282.022C346.08 280.106 328.007 278.007 308.353 275.361C286.98 266.008 266.57 254.008 246.503 241.735C217.572 223.302 188.571 204.049 151.737 190.772C123.148 179.731 94.5604 178.407 66.8657 182.194C44.1876 185.251 21.9906 191.639 0.137207 198.802V200.444C22.6778 193.053 45.6308 186.437 68.5837 183.198C94.7666 179.639 122.049 180.826 149.331 191.365C185.96 204.551 214.96 223.804 243.48 242.146C263.959 254.601 284.438 266.555 306.428 275.999C306.428 276.091 306.428 276.091 306.635 276.136C306.635 276.136 306.635 276.136 307.047 276.136C326.426 278.828 344.981 280.972 362.436 282.843C418.238 288.409 463.182 292.379 520.427 306.203C520.427 306.249 520.427 306.249 520.427 306.249C570.525 312.956 606.122 307.663 642.751 302.371C673.538 298.219 706.249 294.021 748.582 294.66C806.17 294.523 864.24 287.907 917.911 282.341C948.698 279.421 977.699 276.957 1005.26 275.406C1005.46 275.406 1005.94 275.406 1006.36 275.361C1036.25 273.764 1055.01 273.262 1073.77 272.76C1100.64 271.847 1126.62 271.118 1181.8 268.517C1189.43 268.289 1196.64 268.061 1203.17 267.787C1253.13 266.692 1281.65 266.327 1319.72 267.194V267.057H1319.79Z" fill="#44C8F5"/>
<path d="M1319.79 266.784C1294.57 266.373 1272.1 266.556 1242.96 267.103C1229.01 267.332 1213.76 267.97 1195.13 268.7C1139.88 271.529 1115.28 271.894 1089.3 272.213C1071.85 272.487 1053.77 272.578 1026.01 273.491C1025.8 273.491 1025.8 273.491 1025.8 273.491C993.092 274.86 957.288 278.099 919.698 282.114C871.455 287.817 819.708 294.752 771.053 295.528C732.432 295.665 703.844 298.402 676.355 300.957C639.04 304.653 605.641 308.029 553.825 300.136C495.481 284.715 446.208 283.574 386.832 281.795C369.789 281.247 351.922 280.608 332.749 279.513C307.459 271.347 283.544 259.666 259.56 247.439C233.446 233.751 207.47 219.334 177.164 208.338C123.973 188.811 72.8444 200.4 21.0972 212.764C19.7915 212.947 18.8981 213.266 18.0735 213.54C11.8886 212.171 5.97852 211.03 0.137207 210.072V211.304C5.70364 212.216 11.4075 213.357 17.2489 214.68C17.6612 214.817 18.1423 214.863 18.5546 214.908C18.5546 214.863 18.9668 214.817 19.4479 214.726C20.7536 214.406 22.0593 214.041 23.8461 213.722C74.0814 201.723 124.042 190.271 174.896 209.068C205.408 219.927 230.904 234.208 257.018 247.85C281.414 260.26 305.329 272.076 331.031 280.198C331.031 280.243 331.031 280.243 331.031 280.243C331.031 280.289 331.031 280.335 331.443 280.335C331.443 280.335 331.443 280.335 331.649 280.335C351.029 281.475 369.171 282.114 386.626 282.661C445.52 284.35 494.175 285.445 552.039 300.638C552.039 300.683 552.039 300.683 552.039 300.683C552.039 300.683 552.039 300.683 552.245 300.683C604.748 308.805 638.353 305.337 676.562 301.55C703.844 298.95 732.02 296.212 770.366 296.03C819.639 295.163 871.662 288.182 920.11 282.433C957.632 278.418 993.23 275.088 1025.53 273.719C1025.53 273.719 1025.53 273.719 1025.73 273.719C1053.02 272.806 1071.09 272.715 1088.34 272.441C1114.73 272.031 1139.4 271.666 1195.27 268.791C1214.03 268.016 1229.29 267.423 1242.83 267.149C1272.03 266.647 1294.44 266.419 1319.66 266.875V266.784H1319.79Z" fill="#44C8F5"/>
<path d="M1319.79 266.419C1312.23 266.51 1304.54 266.602 1296.43 266.738C1278.77 267.149 1258.7 267.879 1234.85 268.563C1182.9 271.255 1162.15 270.662 1138.16 270.252C1123.32 269.613 1108.06 268.746 1082.98 268.792C1046.35 268.381 1002.03 272.761 956.327 278.418C914.407 284.897 872.212 292.38 834.69 294.479C794.144 296.304 766.862 297.034 740.473 295.756C714.084 294.159 687.489 290.098 645.706 281.293C585.438 262.678 531.904 268.427 462.289 276.913C444.628 279.194 426.073 281.795 406.006 283.985C355.427 283.027 315.294 271.392 273.236 258.663C265.402 256.245 257.568 253.735 249.459 251.272C216.335 240.55 185.823 237.584 154.349 234.664C143.422 233.615 132.77 232.611 122.53 231.288C87.8949 211.213 61.2998 199.259 21.0978 199.579C14.4318 199.624 7.491 200.08 0.0690918 200.902V202.179C7.62844 201.312 14.7755 200.856 21.5789 200.765C59.9941 200.4 85.9708 212.171 120.194 231.972C120.194 232.018 120.194 232.064 120.4 232.155C120.4 232.246 120.4 232.246 120.812 232.246C131.739 233.615 142.872 234.619 153.524 235.714C184.517 238.497 214.823 241.417 247.535 252.002C255.369 254.328 263.203 256.792 270.831 259.302C313.988 272.213 354.053 283.848 405.731 284.76C405.731 284.76 405.731 284.76 405.937 284.806C405.937 284.806 405.937 284.806 406.35 284.715C426.622 282.525 445.177 279.878 463.32 277.552C531.835 269.111 584.682 263.362 643.919 281.658C643.919 281.703 643.919 281.703 643.919 281.703C685.702 290.555 712.503 294.57 739.305 296.212C766.106 297.444 793.388 296.668 833.934 294.798C872.555 292.653 915.163 285.08 957.083 278.555C1002.3 272.898 1046.21 268.518 1081.95 268.883C1106.83 268.792 1122.08 269.704 1136.65 270.252C1160.84 270.662 1182.01 271.301 1235.06 268.518C1259.04 267.879 1279.18 267.058 1296.84 266.738C1304.68 266.602 1312.23 266.51 1319.52 266.419H1319.79Z" fill="#44C8F5"/>
<path d="M1319.79 267.057C1301.93 267.377 1282.89 267.787 1260.42 268.654C1211.49 270.844 1192.8 270.069 1171.22 268.7C1158.16 267.696 1143.32 266.692 1119.33 266.145C1083.12 265.05 1035.29 269.339 987.045 275.772C948.149 281.977 908.359 289.733 875.854 292.014C818.471 295.892 794.969 291.649 753.805 283.026C740.06 279.604 724.392 275.407 704.6 270.388C643.026 250.678 586.88 259.119 513.28 272.395C494.038 276.137 473.284 280.426 451.293 284.486C421.399 288.273 394.323 288.775 369.24 286.859C343.744 284.805 320.654 280.106 297.77 273.855C286.637 270.707 275.573 267.924 265.058 265.187C238.257 257.932 213.38 250.815 189.19 239.774C156.066 213.585 131.945 195.289 95.2479 190.134C71.4704 186.712 41.5766 189.312 0.206299 199.715V201.221C41.6453 190.59 71.058 187.852 94.1484 191.183C129.471 196.202 153.661 214.224 186.372 240.184C186.372 240.23 186.372 240.276 186.579 240.23C211.181 251.545 236.058 258.617 263.065 265.962C273.511 268.7 284.438 271.574 295.571 274.54C318.867 280.927 342.232 285.672 368.14 287.725C393.842 289.596 421.537 289.14 452.118 285.125C452.118 285.125 452.118 285.125 452.53 285.125C452.53 285.125 452.53 285.125 452.53 285.034C474.59 280.973 495.344 276.73 514.998 272.989C587.087 259.803 642.339 251.499 703.02 270.662C703.02 270.707 703.02 270.707 703.02 270.707C722.399 275.726 738.068 279.878 752.018 283.346C793.594 292.014 817.097 296.303 875.579 292.334C908.771 290.052 948.973 282.114 988.076 275.772C1035.91 269.521 1083.32 265.141 1118.17 266.236C1141.94 266.784 1156.51 267.833 1169.64 268.745C1191.42 270.16 1210.8 270.981 1261.04 268.7C1283.58 267.833 1302.2 267.468 1319.79 267.103V267.057Z" fill="#44C8F5"/>
<path d="M1319.79 267.468C1305.5 267.833 1290.31 268.243 1273.27 268.654C1237.67 270.068 1219.12 269.795 1203.04 269.247C1197.61 268.973 1192.59 268.654 1187.37 268.243C1174.72 267.103 1160.98 265.734 1137.27 265.232C1101.26 263.544 1051.92 268.061 1002.99 274.357C964.779 280.699 926.707 288.364 895.92 290.736C845.479 294.66 823.076 290.143 790.639 281.976C774.971 277.779 756.897 272.304 732.776 265.916C680.548 249.263 631.412 252.913 571.349 263.361C560.423 265.46 549.702 267.787 538.157 270.296C518.709 274.722 497.543 279.695 474.177 284.531C442.978 290.326 415.902 292.926 390.406 292.744C364.91 292.561 342.026 289.459 320.448 283.893C302.58 279.148 285.125 274.038 268.838 267.696C252.07 261.217 236.195 253.506 220.733 243.469C220.321 243.195 219.84 242.876 219.84 242.648C193.313 218.421 172.628 199.623 144.727 190.179C112.84 179.001 72.3635 180.278 0.343506 200.855V202.406C72.226 181.693 111.878 180.096 142.528 190.818C169.81 200.171 190.702 218.831 217.022 242.921C217.022 243.286 217.228 243.606 217.641 243.834C217.641 243.88 217.641 243.879 218.053 243.879C218.053 243.925 218.053 243.925 218.053 243.925C233.515 254.008 249.39 261.765 266.158 268.335C282.926 274.722 300.587 279.878 318.248 284.668C340.445 290.326 364.017 293.474 390.2 293.702C415.902 293.793 443.665 291.056 475.964 285.17C498.917 280.288 520.289 275.315 539.738 270.935C551.283 268.38 562.003 266.008 572.93 263.955C631.893 253.643 679.929 249.993 730.852 266.327C755.042 272.669 773.047 278.098 788.715 282.341C821.77 290.554 844.242 295.162 895.714 291.147C927.326 288.638 965.81 280.881 1004.09 274.539C1052.61 268.198 1101.53 263.726 1136.17 265.369C1159.54 265.825 1173.21 267.24 1186.06 268.335C1191.08 268.791 1196.3 269.156 1201.73 269.384C1218.09 269.977 1237.47 270.205 1274.16 268.791C1290.72 268.335 1305.71 268.015 1319.79 267.604V267.468Z" fill="#44C8F5"/>
<path d="M1319.79 268.015C1309 268.289 1297.73 268.517 1285.71 268.608C1256.71 269.886 1239.46 269.704 1225.92 269.065C1217.88 268.837 1210.87 268.335 1203.24 267.742C1191.01 266.601 1177.75 265.095 1155.27 264.274C1119.06 262.54 1068.82 266.966 1019.28 273.125C981.478 279.467 944.987 286.95 915.506 289.55C870.081 293.292 849.465 288.638 821.152 280.699C805.483 275.726 787.89 269.338 760.471 262.13C716.97 248.123 674.363 248.534 625.227 255.697C605.985 258.936 584.819 263.407 562.553 268.654C542.693 273.536 521.733 279.102 498.299 284.532C464.9 292.105 436.93 296.713 412.328 298.265C386.145 299.862 363.673 298.128 342.782 293.428C326.426 289.322 311.17 283.756 296.189 276.319C280.727 268.7 266.158 259.073 251.795 247.074C250.283 245.705 248.771 244.382 247.672 243.013C221.352 216.231 201.766 195.38 172.559 184.978C137.099 172.294 89.4753 175.169 0.206299 202.909V204.597C89.3379 176.629 136.206 173.48 170.566 185.617C199.155 195.791 218.74 216.55 245.06 243.332C246.16 244.655 247.672 246.024 249.184 247.347C263.34 259.483 278.115 269.247 293.578 276.867C308.834 284.395 324.502 290.007 341.064 294.067C362.436 298.995 385.527 300.729 412.328 299.177C437.618 297.444 466.206 292.79 500.085 285.079C523.245 279.604 544.205 274.083 564.065 269.11C586.331 263.955 607.566 259.347 626.739 256.244C674.363 249.218 716.214 248.807 758.684 262.449C785.897 269.612 803.696 275.908 819.159 280.973C847.884 289.048 868.776 293.793 915.231 289.824C945.606 287.178 982.509 279.604 1020.58 273.171C1069.51 267.103 1119.33 262.677 1154.18 264.411C1176.17 265.187 1189.5 266.647 1201.66 267.833C1209.08 268.472 1216.3 268.882 1224.55 269.065C1238.5 269.795 1256.36 269.932 1286.26 268.608C1298.15 268.517 1309.21 268.289 1319.72 268.061V268.015H1319.79Z" fill="#44C8F5"/>
<path d="M1319.79 268.517C1312.58 268.699 1305.09 268.882 1297.25 268.973C1272.79 269.703 1257.12 269.794 1244.68 269.247C1234.65 268.791 1227.23 267.969 1219.19 267.194C1207.23 266.19 1194.38 264.593 1171.91 263.589C1147.03 262.403 1114.11 263.635 1079.34 266.738C1064.29 268.198 1049.17 270.114 1034.33 272.167C997.628 278.372 961.755 285.672 934.473 288.227C891.935 292.105 873.449 287.132 848.228 279.239C832.559 273.672 814.76 266.601 787.341 258.936C747.07 246.161 708.242 245.431 663.299 250.906C639.246 254.419 614.163 260.168 585.987 266.966C565.027 272.441 543.38 278.463 520.221 284.623C486.341 293.748 456.86 300.135 431.776 303.466C406.487 306.614 384.015 306.249 364.155 302.051C348.486 298.675 334.536 292.789 321.272 284.44C307.803 275.68 294.746 264.365 281.895 250.495C279.284 247.849 277.085 245.248 274.954 242.648C249.321 213.676 230.148 191.456 200.529 180.141C164.313 166.682 113.253 169.83 18.2113 199.121C12.1638 201.129 6.18506 203.091 0.206299 205.053V206.878C7.14716 204.642 14.1567 202.315 21.235 199.988C114.078 171.108 163.832 167.96 198.055 180.689C227.468 191.73 246.435 213.995 271.862 242.83C274.061 245.431 276.191 247.986 278.803 250.586C292.066 264.639 305.329 276.091 318.592 284.851C332.062 293.337 346.218 299.359 361.887 302.781C382.572 307.161 405.937 307.526 432.326 304.15C457.822 300.865 487.578 294.432 521.87 285.124C545.235 278.965 566.883 272.851 587.636 267.513C615.812 260.669 640.758 254.875 664.742 251.453C708.174 246.024 746.176 246.754 785.348 259.118C812.974 266.874 830.566 273.946 846.235 279.421C871.868 287.451 890.354 292.607 934.473 288.501C962.855 285.854 998.728 278.509 1035.63 272.213C1050.47 270.205 1065.59 268.289 1080.64 266.829C1114.52 263.817 1146.82 262.54 1170.53 263.681C1192.59 264.684 1205.65 266.236 1217.4 267.331C1225.65 268.061 1233.27 268.836 1243.31 269.338C1256.16 269.84 1272.72 269.84 1298.08 269.064C1305.57 268.973 1312.78 268.836 1319.72 268.654V268.517H1319.79Z" fill="#44C8F5"/>
<path d="M1319.79 268.563C1273.89 267.924 1247.64 267.377 1221.18 266.693C1194.38 266.419 1166.89 265.552 1116.93 265.963C1042.78 266.008 1009.79 270.114 970.002 276.183C951.859 279.422 931.999 283.528 904.854 287.999C841.905 300.318 786.585 297.991 721.162 292.744C695.46 289.916 667.766 286.494 637.734 283.528C574.992 275.909 525.375 293.976 475.483 313.504C434.594 331.161 393.98 349.456 346.905 350.141C283.682 344.757 244.992 311.542 195.856 266.464C192.145 262.678 188.022 258.617 184.105 255.104C179.569 247.758 174.758 240.276 170.017 232.702C155.448 209.205 140.673 184.841 122.874 162.029C111.535 146.653 98.2717 132.008 83.634 119.233C68.9964 106.093 52.0221 94.8234 31.4744 86.4284C21.0288 82.0027 10.6519 78.9459 0.206299 77.1665V78.4895C9.89601 80.1777 19.5857 83.0064 29.2754 87.067C48.9297 95.3252 66.1788 106.366 80.7477 119.415C95.5915 132.19 108.236 146.79 119.713 162.12C137.58 184.933 152.149 209.479 166.649 232.976C171.46 240.595 176.202 248.169 181.012 255.423C181.012 255.469 181.012 255.469 181.012 255.469C181.012 255.514 181.012 255.515 181.012 255.515C185.823 259.803 189.465 263.362 193.176 266.875C242.312 312.272 281.002 345.715 345.531 351.144C345.531 351.19 345.531 351.19 345.943 351.19C395.01 350.46 435.831 331.799 477.407 313.96C526.337 294.661 575.541 276.867 636.566 284.076C666.185 287.041 693.88 290.509 719.788 293.338C786.035 298.63 841.63 300.957 906.091 288.273C932.961 283.756 953.303 279.696 971.445 276.411C1010.55 270.343 1043.33 266.328 1116.65 266.236C1166.2 265.826 1193.21 266.647 1219.8 266.966C1246.81 267.468 1273.13 268.016 1319.79 268.563Z" fill="#44C8F5"/>
</g>
<rect width="1320" height="201" fill="url(#paint54_linear_929_2898)"/>
</g>
<defs>
<linearGradient id="paint0_linear_929_2898" x1="602.923" y1="-254.634" x2="652.053" y2="591.2" gradientUnits="userSpaceOnUse">
<stop stop-color="#00AEEF"/>
<stop offset="1" stop-color="#2E3192"/>
</linearGradient>
<linearGradient id="paint1_linear_929_2898" x1="887.24" y1="-652.579" x2="997.847" y2="204.501" gradientUnits="userSpaceOnUse">
<stop stop-color="#00AEEF"/>
<stop offset="1" stop-color="#2E3192"/>
</linearGradient>
<linearGradient id="paint2_linear_929_2898" x1="893.972" y1="-1254.83" x2="1079.26" y2="180.923" gradientUnits="userSpaceOnUse">
<stop stop-color="#00AEEF"/>
<stop offset="1" stop-color="#2E3192"/>
</linearGradient>
<linearGradient id="paint3_linear_929_2898" x1="101.941" y1="171.705" x2="210.744" y2="1014.8" gradientUnits="userSpaceOnUse">
<stop stop-color="#00AEEF"/>
<stop offset="1" stop-color="#2E3192"/>
</linearGradient>
<linearGradient id="paint4_linear_929_2898" x1="693.631" y1="-465.76" x2="803.957" y2="389.143" gradientUnits="userSpaceOnUse">
<stop stop-color="#00AEEF"/>
<stop offset="1" stop-color="#2E3192"/>
</linearGradient>
<linearGradient id="paint5_linear_929_2898" x1="739.896" y1="-555.762" x2="849.698" y2="295.071" gradientUnits="userSpaceOnUse">
<stop stop-color="#00AEEF"/>
<stop offset="1" stop-color="#2E3192"/>
</linearGradient>
<linearGradient id="paint6_linear_929_2898" x1="217.646" y1="-30.7446" x2="327.178" y2="818.005" gradientUnits="userSpaceOnUse">
<stop stop-color="#00AEEF"/>
<stop offset="1" stop-color="#2E3192"/>
</linearGradient>
<linearGradient id="paint7_linear_929_2898" x1="365.824" y1="-53.5689" x2="476.712" y2="805.689" gradientUnits="userSpaceOnUse">
<stop stop-color="#00AEEF"/>
<stop offset="1" stop-color="#2E3192"/>
</linearGradient>
<linearGradient id="paint8_linear_929_2898" x1="419.698" y1="-100.935" x2="528.578" y2="742.754" gradientUnits="userSpaceOnUse">
<stop stop-color="#00AEEF"/>
<stop offset="1" stop-color="#2E3192"/>
</linearGradient>
<linearGradient id="paint9_linear_929_2898" x1="471.124" y1="-156.666" x2="580.202" y2="688.571" gradientUnits="userSpaceOnUse">
<stop stop-color="#00AEEF"/>
<stop offset="1" stop-color="#2E3192"/>
</linearGradient>
<linearGradient id="paint10_linear_929_2898" x1="523.264" y1="-209.963" x2="631.899" y2="631.826" gradientUnits="userSpaceOnUse">
<stop stop-color="#00AEEF"/>
<stop offset="1" stop-color="#2E3192"/>
</linearGradient>
<linearGradient id="paint11_linear_929_2898" x1="574.914" y1="-264.946" x2="683.548" y2="576.842" gradientUnits="userSpaceOnUse">
<stop stop-color="#00AEEF"/>
<stop offset="1" stop-color="#2E3192"/>
</linearGradient>
<linearGradient id="paint12_linear_929_2898" x1="625.14" y1="-324.978" x2="735.192" y2="527.804" gradientUnits="userSpaceOnUse">
<stop stop-color="#00AEEF"/>
<stop offset="1" stop-color="#2E3192"/>
</linearGradient>
<linearGradient id="paint13_linear_929_2898" x1="679.683" y1="-382.452" x2="789.586" y2="469.172" gradientUnits="userSpaceOnUse">
<stop stop-color="#00AEEF"/>
<stop offset="1" stop-color="#2E3192"/>
</linearGradient>
<linearGradient id="paint14_linear_929_2898" x1="733.568" y1="-437.34" x2="843.103" y2="411.426" gradientUnits="userSpaceOnUse">
<stop stop-color="#00AEEF"/>
<stop offset="1" stop-color="#2E3192"/>
</linearGradient>
<linearGradient id="paint15_linear_929_2898" x1="784.132" y1="-490.978" x2="893.462" y2="356.205" gradientUnits="userSpaceOnUse">
<stop stop-color="#00AEEF"/>
<stop offset="1" stop-color="#2E3192"/>
</linearGradient>
<linearGradient id="paint16_linear_929_2898" x1="839.878" y1="-546.969" x2="948.694" y2="296.228" gradientUnits="userSpaceOnUse">
<stop stop-color="#00AEEF"/>
<stop offset="1" stop-color="#2E3192"/>
</linearGradient>
<linearGradient id="paint17_linear_929_2898" x1="1008.58" y1="-703.318" x2="1118.85" y2="151.164" gradientUnits="userSpaceOnUse">
<stop stop-color="#00AEEF"/>
<stop offset="1" stop-color="#2E3192"/>
</linearGradient>
<linearGradient id="paint18_linear_929_2898" x1="971.601" y1="-800.083" x2="1080.65" y2="44.9311" gradientUnits="userSpaceOnUse">
<stop stop-color="#00AEEF"/>
<stop offset="1" stop-color="#2E3192"/>
</linearGradient>
<linearGradient id="paint19_linear_929_2898" x1="305.745" y1="-24.0405" x2="414.418" y2="818.049" gradientUnits="userSpaceOnUse">
<stop stop-color="#00AEEF"/>
<stop offset="1" stop-color="#2E3192"/>
</linearGradient>
<linearGradient id="paint20_linear_929_2898" x1="356.989" y1="-80.4044" x2="466.03" y2="764.539" gradientUnits="userSpaceOnUse">
<stop stop-color="#00AEEF"/>
<stop offset="1" stop-color="#2E3192"/>
</linearGradient>
<linearGradient id="paint21_linear_929_2898" x1="408.348" y1="-136.36" x2="517.639" y2="710.524" gradientUnits="userSpaceOnUse">
<stop stop-color="#00AEEF"/>
<stop offset="1" stop-color="#2E3192"/>
</linearGradient>
<linearGradient id="paint22_linear_929_2898" x1="459.771" y1="-192.109" x2="569.269" y2="656.364" gradientUnits="userSpaceOnUse">
<stop stop-color="#00AEEF"/>
<stop offset="1" stop-color="#2E3192"/>
</linearGradient>
<linearGradient id="paint23_linear_929_2898" x1="512.378" y1="-243.813" x2="621.012" y2="597.976" gradientUnits="userSpaceOnUse">
<stop stop-color="#00AEEF"/>
<stop offset="1" stop-color="#2E3192"/>
</linearGradient>
<linearGradient id="paint24_linear_929_2898" x1="564.016" y1="-298.811" x2="672.654" y2="543.005" gradientUnits="userSpaceOnUse">
<stop stop-color="#00AEEF"/>
<stop offset="1" stop-color="#2E3192"/>
</linearGradient>
<linearGradient id="paint25_linear_929_2898" x1="614.824" y1="-356.672" x2="724.224" y2="491.051" gradientUnits="userSpaceOnUse">
<stop stop-color="#00AEEF"/>
<stop offset="1" stop-color="#2E3192"/>
</linearGradient>
<linearGradient id="paint26_linear_929_2898" x1="292.862" y1="-59.9147" x2="401.99" y2="785.703" gradientUnits="userSpaceOnUse">
<stop stop-color="#00AEEF"/>
<stop offset="1" stop-color="#2E3192"/>
</linearGradient>
<linearGradient id="paint27_linear_929_2898" x1="344.093" y1="-116.314" x2="453.602" y2="732.261" gradientUnits="userSpaceOnUse">
<stop stop-color="#00AEEF"/>
<stop offset="1" stop-color="#2E3192"/>
</linearGradient>
<linearGradient id="paint28_linear_929_2898" x1="395.423" y1="-172.376" x2="505.218" y2="678.4" gradientUnits="userSpaceOnUse">
<stop stop-color="#00AEEF"/>
<stop offset="1" stop-color="#2E3192"/>
</linearGradient>
<linearGradient id="paint29_linear_929_2898" x1="446.854" y1="-228.095" x2="556.839" y2="624.163" gradientUnits="userSpaceOnUse">
<stop stop-color="#00AEEF"/>
<stop offset="1" stop-color="#2E3192"/>
</linearGradient>
<linearGradient id="paint30_linear_929_2898" x1="500.019" y1="-277.888" x2="608.637" y2="563.772" gradientUnits="userSpaceOnUse">
<stop stop-color="#00AEEF"/>
<stop offset="1" stop-color="#2E3192"/>
</linearGradient>
<linearGradient id="paint31_linear_929_2898" x1="551.647" y1="-332.923" x2="660.281" y2="508.865" gradientUnits="userSpaceOnUse">
<stop stop-color="#00AEEF"/>
<stop offset="1" stop-color="#2E3192"/>
</linearGradient>
<linearGradient id="paint32_linear_929_2898" x1="603.356" y1="-388.113" x2="712.312" y2="456.174" gradientUnits="userSpaceOnUse">
<stop stop-color="#00AEEF"/>
<stop offset="1" stop-color="#2E3192"/>
</linearGradient>
<linearGradient id="paint33_linear_929_2898" x1="331.475" y1="-150.49" x2="441.44" y2="701.61" gradientUnits="userSpaceOnUse">
<stop stop-color="#00AEEF"/>
<stop offset="1" stop-color="#2E3192"/>
</linearGradient>
<linearGradient id="paint34_linear_929_2898" x1="382.794" y1="-206.597" x2="493.057" y2="647.81" gradientUnits="userSpaceOnUse">
<stop stop-color="#00AEEF"/>
<stop offset="1" stop-color="#2E3192"/>
</linearGradient>
<linearGradient id="paint35_linear_929_2898" x1="434.209" y1="-262.373" x2="544.68" y2="593.65" gradientUnits="userSpaceOnUse">
<stop stop-color="#00AEEF"/>
<stop offset="1" stop-color="#2E3192"/>
</linearGradient>
<linearGradient id="paint36_linear_929_2898" x1="487.907" y1="-310.344" x2="596.528" y2="531.351" gradientUnits="userSpaceOnUse">
<stop stop-color="#00AEEF"/>
<stop offset="1" stop-color="#2E3192"/>
</linearGradient>
<linearGradient id="paint37_linear_929_2898" x1="539.554" y1="-365.329" x2="648.176" y2="476.366" gradientUnits="userSpaceOnUse">
<stop stop-color="#00AEEF"/>
<stop offset="1" stop-color="#2E3192"/>
</linearGradient>
<linearGradient id="paint38_linear_929_2898" x1="627.629" y1="-459.357" x2="737.582" y2="392.658" gradientUnits="userSpaceOnUse">
<stop stop-color="#00AEEF"/>
<stop offset="1" stop-color="#2E3192"/>
</linearGradient>
<linearGradient id="paint39_linear_929_2898" x1="681.135" y1="-517.729" x2="791.156" y2="334.808" gradientUnits="userSpaceOnUse">
<stop stop-color="#00AEEF"/>
<stop offset="1" stop-color="#2E3192"/>
</linearGradient>
<linearGradient id="paint40_linear_929_2898" x1="369.002" y1="-239.789" x2="479.775" y2="618.578" gradientUnits="userSpaceOnUse">
<stop stop-color="#00AEEF"/>
<stop offset="1" stop-color="#2E3192"/>
</linearGradient>
<linearGradient id="paint41_linear_929_2898" x1="422.869" y1="-287.182" x2="531.641" y2="555.682" gradientUnits="userSpaceOnUse">
<stop stop-color="#00AEEF"/>
<stop offset="1" stop-color="#2E3192"/>
</linearGradient>
<linearGradient id="paint42_linear_929_2898" x1="474.319" y1="-342.829" x2="583.266" y2="501.382" gradientUnits="userSpaceOnUse">
<stop stop-color="#00AEEF"/>
<stop offset="1" stop-color="#2E3192"/>
</linearGradient>
<linearGradient id="paint43_linear_929_2898" x1="526.325" y1="-396.591" x2="634.951" y2="445.133" gradientUnits="userSpaceOnUse">
<stop stop-color="#00AEEF"/>
<stop offset="1" stop-color="#2E3192"/>
</linearGradient>
<linearGradient id="paint44_linear_929_2898" x1="616.654" y1="-492.187" x2="726.155" y2="356.315" gradientUnits="userSpaceOnUse">
<stop stop-color="#00AEEF"/>
<stop offset="1" stop-color="#2E3192"/>
</linearGradient>
<linearGradient id="paint45_linear_929_2898" x1="669.352" y1="-544.4" x2="778.672" y2="302.702" gradientUnits="userSpaceOnUse">
<stop stop-color="#00AEEF"/>
<stop offset="1" stop-color="#2E3192"/>
</linearGradient>
<linearGradient id="paint46_linear_929_2898" x1="364.72" y1="-275.472" x2="473.48" y2="567.291" gradientUnits="userSpaceOnUse">
<stop stop-color="#00AEEF"/>
<stop offset="1" stop-color="#2E3192"/>
</linearGradient>
<linearGradient id="paint47_linear_929_2898" x1="416.066" y1="-331.475" x2="525.095" y2="513.371" gradientUnits="userSpaceOnUse">
<stop stop-color="#00AEEF"/>
<stop offset="1" stop-color="#2E3192"/>
</linearGradient>
<linearGradient id="paint48_linear_929_2898" x1="243.588" y1="-150.095" x2="354.487" y2="709.241" gradientUnits="userSpaceOnUse">
<stop stop-color="#00AEEF"/>
<stop offset="1" stop-color="#2E3192"/>
</linearGradient>
<linearGradient id="paint49_linear_929_2898" x1="801.481" y1="-465.666" x2="911.283" y2="385.171" gradientUnits="userSpaceOnUse">
<stop stop-color="#00AEEF"/>
<stop offset="1" stop-color="#2E3192"/>
</linearGradient>
<linearGradient id="paint50_linear_929_2898" x1="749.702" y1="-412.46" x2="859.891" y2="441.379" gradientUnits="userSpaceOnUse">
<stop stop-color="#00AEEF"/>
<stop offset="1" stop-color="#2E3192"/>
</linearGradient>
<linearGradient id="paint51_linear_929_2898" x1="698.012" y1="-358.971" x2="808.512" y2="497.272" gradientUnits="userSpaceOnUse">
<stop stop-color="#00AEEF"/>
<stop offset="1" stop-color="#2E3192"/>
</linearGradient>
<linearGradient id="paint52_linear_929_2898" x1="643.224" y1="-301.108" x2="753.817" y2="555.861" gradientUnits="userSpaceOnUse">
<stop stop-color="#00AEEF"/>
<stop offset="1" stop-color="#2E3192"/>
</linearGradient>
<linearGradient id="paint53_linear_929_2898" x1="593.911" y1="-239.352" x2="702.545" y2="602.436" gradientUnits="userSpaceOnUse">
<stop stop-color="#00AEEF"/>
<stop offset="1" stop-color="#2E3192"/>
</linearGradient>
<linearGradient id="paint54_linear_929_2898" x1="706.081" y1="201" x2="706.27" y2="0.00575814" gradientUnits="userSpaceOnUse">
<stop stop-opacity="0.1"/>
<stop offset="0.2" stop-opacity="0.11"/>
<stop offset="0.4" stop-opacity="0.117265"/>
<stop offset="0.57" stop-opacity="0.131693"/>
<stop offset="0.8" stop-opacity="0.15"/>
<stop offset="1" stop-opacity="0.15"/>
</linearGradient>
<clipPath id="clip0_929_2898">
<rect width="1320" height="201" fill="white"/>
</clipPath>
</defs>
</svg>
