<svg width="60" height="48" viewBox="0 0 60 48" fill="none" xmlns="http://www.w3.org/2000/svg">
<path d="M59.4368 4.04605C59.3793 2.11501 56.954 0.816162 53.4023 0.816162C52.9081 0.816162 52.3218 0.839151 51.6667 0.908116C51.4943 0.896622 51.3333 0.885128 51.1609 0.862139L51.046 0.850645C51.0115 0.850645 50.9885 0.850645 50.954 0.850645C50.931 0.850645 50.9081 0.850645 50.8851 0.850645C44.2989 1.21846 38.7241 3.60927 34.2989 7.96559C31.8161 10.4024 30.2299 12.9656 29.2874 14.7357C26.6092 9.96559 23.2184 6.5403 19.1724 4.5403C16.6092 3.27593 13.8851 2.63225 11.069 2.63225H10.8161C10.8046 2.63225 10.7816 2.63225 10.7701 2.63225C5.72414 2.85064 2.44828 3.97708 1.05747 6.01156C-0.0114916 7.55179 0.42529 9.00007 0.482761 9.16099C0.528738 9.28743 0.58621 9.41386 0.678164 9.51731C1.42529 10.4598 2.75862 10.5633 3.70115 10.5633C5.31035 10.5633 7.32184 10.1725 9.09196 9.83915C9.50575 9.75869 9.89655 9.68972 10.2529 9.62076C11.1724 9.52881 12.092 9.48283 12.9655 9.48283C13.1954 9.48283 13.4253 9.48283 13.6552 9.49432C13.7701 9.75869 13.977 9.97708 14.2529 10.1035C19.7126 12.4713 22.5977 16.6667 24.1149 20.115C24 20.069 23.8736 20.0575 23.7471 20.0575C23.6782 20.0575 23.6092 20.069 23.5287 20.0805C22.9885 20.184 22.5977 20.6552 22.5977 21.207V21.7242C22.5862 21.7127 22.5747 21.7127 22.5747 21.7012C22.4368 21.5863 22.4253 21.5633 22.3908 21.5173C22.1954 21.1265 21.7931 20.8851 21.3678 20.8851C21.2759 20.8851 21.1839 20.8966 21.1035 20.9196C20.5862 21.046 20.2184 21.5058 20.2184 22.0346V35.3219C20.2184 35.5288 20.2759 35.7242 20.3678 35.8966C21.3103 37.5173 22.2759 38.184 23.3103 38.8966C24.1839 39.4943 25.0805 40.115 26.2184 41.5058C26.4483 41.7817 26.7701 41.9311 27.1035 41.9311C27.3218 41.9311 27.5287 41.8736 27.7241 41.7472C27.8506 41.6667 27.954 41.5633 28.0345 41.4483C28.1149 41.6667 28.2069 41.8851 28.2874 42.1265C28.2529 42.138 28.2299 42.161 28.1954 42.1725C27.9195 42.0345 27.6207 41.9656 27.2874 41.9656C26.9655 41.9656 26.6552 42.0346 26.3678 42.184C26.0575 42.3449 25.7816 42.5978 25.6092 42.9081C25.4598 43.184 25.3678 43.5058 25.3678 43.8391C25.3678 44.1035 25.4598 44.3449 25.5977 44.5403C25.4828 44.7242 25.4253 44.9311 25.4253 45.1495V45.4024C25.4253 46.0346 25.9425 46.5518 26.5747 46.5518H28.0805C28.2184 46.5518 28.3563 46.5288 28.4828 46.4828C28.6782 46.5403 28.8851 46.5748 29.092 46.5748C29.4253 46.5748 29.7241 46.4943 29.9885 46.3564C30.2529 46.4943 30.5517 46.5748 30.8851 46.5748C31.1724 46.5748 31.4483 46.5173 31.6897 46.4024C31.8621 46.5058 32.0575 46.5633 32.2644 46.5633H32.3103C33.2069 46.5633 33.7241 46.161 34.0115 45.8277C34.3793 45.4024 34.5517 44.8391 34.5517 44.161V44.0231C34.5517 43.4598 34.4023 43.0001 34.1035 42.6323C33.7471 42.184 33.2529 41.9426 32.6667 41.9426C32.3793 41.9426 32.069 42.0231 31.7931 42.161C31.6552 42.092 31.5172 42.0345 31.3563 42.0001C31.4253 41.8047 31.4943 41.6093 31.5632 41.4369C31.6437 41.5518 31.7471 41.6552 31.8736 41.7357C32.069 41.8621 32.2759 41.9196 32.4943 41.9196C32.8276 41.9196 33.1609 41.7702 33.3793 41.4943C34.5172 40.1035 35.4138 39.4828 36.2874 38.8851C37.3218 38.1725 38.2874 37.5058 39.2299 35.8851C39.3333 35.7127 39.3793 35.5058 39.3793 35.3104V22.0116C39.3793 21.4828 39.0115 21.0231 38.4943 20.8966C38.4023 20.8736 38.3103 20.8621 38.2299 20.8621C37.8046 20.8621 37.4023 21.1035 37.2069 21.4943C37.1839 21.5403 37.1724 21.5633 37.023 21.6782C37.0115 21.6897 37 21.6897 37 21.7012V21.184C37 20.6323 36.6092 20.161 36.069 20.0575C36 20.046 35.9195 20.0346 35.8506 20.0346C35.3908 20.0346 34.954 20.3219 34.7816 20.7587C34.4943 21.4828 34.1724 22.0231 33.7931 22.4943C36 15.8506 43.4023 11.4713 49.7012 8.85065C50.4828 8.52881 51.1954 8.22996 51.8506 7.9311C58.7816 7.47133 59.4713 5.06904 59.4368 4.04605Z" fill="white"/>
<path d="M1.56322 8.79308C1.56322 8.79308 0.0459776 4.22987 10.8161 3.79308C12.5287 3.79308 22.6782 3.49423 29.3218 17.2988C30.2299 15.4368 35.3563 2.88504 50.954 2.01147C52.2988 2.11492 61.8851 2.66665 49.2874 7.79308C42.8391 10.4712 32.4713 16.1149 32.023 25.8965L32.0115 26.0919C31.8736 26.2529 31.7471 26.4368 31.6092 26.6207V26.3448C31.6092 26.3448 31.4253 19.4368 25.6782 12.908C24.8621 12.1264 20.2644 7.42527 10.0805 8.47124C7.2069 8.98849 2.6092 10.1034 1.56322 8.79308Z" fill="#102A83"/>
<path d="M14.7011 9.03449C14.7011 9.03449 22.6092 9.33334 26.8276 14.4483C27 14.6322 27.1609 14.8046 27.3103 14.9655C28.7931 17.0575 29.7701 19.1149 30.4023 20.8851C30.3793 20.8161 30.3448 20.7471 30.3218 20.6667V20.6552C30.3218 20.6552 34.908 8.89656 45.5517 3.78161C57.5057 -1.3908 64.023 6.05747 51.5632 6.8046C49.4598 7.10345 35.1609 9.66667 30.6552 21.6322C31.5517 24.4138 31.5977 26.3333 31.5977 26.3333V26.6092C31.1609 27.2184 30.7356 27.9425 30.3333 28.8736L30.2989 31.3908C30.8046 31.6092 31.1494 32.1035 31.1494 32.6782C31.1494 33.4483 30.5172 34.0805 29.7471 34.0805C28.977 34.0805 28.3448 33.4483 28.3448 32.6782C28.3448 32.4598 28.3908 32.2529 28.4828 32.069L28.4713 32.0805L28.4828 32.069C28.6437 31.7356 28.931 31.4828 29.2759 31.3563L29.2529 28.8736C28.4828 27.1149 27.6437 26.0805 26.8161 25.2299C26.5057 23.1035 24.4943 13.2874 14.7011 9.03449ZM30.4138 20.9195C30.4368 20.9885 30.4598 21.0575 30.4828 21.1149C30.4598 21.046 30.4368 20.9885 30.4138 20.9195Z" fill="#1494CB"/>
<path d="M37.1954 23.3448C37.5287 22.5517 37.954 22.5977 38.2529 22.0115V35.2988C36.7011 37.977 35.092 37.5977 32.5057 40.7471C34.2184 37.2069 36.931 36.8621 37.1379 34.7816C37.1609 30.8391 37.1724 27.2758 37.1954 23.3448Z" fill="#102A83"/>
<path d="M22.4138 23.3448C22.0805 22.5517 21.6552 22.5977 21.3563 22.0115V35.2988C22.908 37.977 24.5172 37.5977 27.1035 40.7471C25.3908 37.2069 22.6782 36.8621 22.4713 34.7816C22.4483 30.8391 22.4368 27.2758 22.4138 23.3448Z" fill="#102A83"/>
<path d="M29.2644 28.8735C27.3908 24.5976 25.069 24.5746 23.7356 21.1838V33.2758C24.8046 37.3907 27.8046 36.8275 29.4138 41.862L29.3218 34.0114C28.7586 33.8275 28.3563 33.2988 28.3563 32.6781C28.3563 32.0689 28.7471 31.5517 29.2874 31.3563L29.2644 28.8735Z" fill="#102A83"/>
<path d="M30.3448 28.8735C32.2184 24.5976 34.5402 24.5746 35.8736 21.1838V33.2758C34.8046 37.3907 31.8046 36.8275 30.1954 41.862L30.2874 33.9769L30.3103 33.9654L30.3218 33.954H30.3333L30.3448 33.9425H30.3563L30.3678 33.931L30.3908 33.9195L30.4138 33.908L30.4253 33.8965L30.4368 33.885H30.4483L30.4713 33.8735L30.4943 33.862H30.5057L30.5172 33.8505H30.5287L30.5517 33.839L30.5747 33.8275L30.5862 33.816L30.5977 33.8045L30.6092 33.793L30.6207 33.7815L30.6322 33.77L30.6552 33.7586L30.6782 33.7356L30.6897 33.7241L30.7012 33.7126L30.7241 33.6896L30.7471 33.6666L30.7586 33.6551L30.7701 33.6436V33.6321L30.7816 33.6091L30.8046 33.5861L30.8161 33.5746L30.8276 33.5631L30.8391 33.5402L30.8506 33.5172L30.8621 33.4942L30.8736 33.4712C30.8851 33.4597 30.8966 33.4367 30.908 33.4252V33.4137L30.9195 33.3907L30.931 33.3677L30.9425 33.3448L30.954 33.3218L30.9655 33.2988V33.2873L30.977 33.2643V33.2528L30.9885 33.2298V33.2183C31 33.1953 31 33.1838 31.0115 33.1608V33.1494V33.1379L31.023 33.1149C31.0345 33.0919 31.0345 33.0689 31.0345 33.0459V33.0344V33.0114V32.9999V32.9769V32.9425V32.9195V32.8965V32.885V32.8735V32.8505V32.8275V32.816V32.793V32.7815V32.7471V32.7126V32.7011V32.6781V32.6436V32.6206V32.5976V32.5861V32.5631V32.5402V32.5057V32.4942V32.4712V32.4597V32.4367L31.023 32.4022L31.0115 32.3677L31 32.3448V32.3333L30.9885 32.3103V32.2988L30.977 32.2758V32.2643L30.9655 32.2413L30.954 32.2183L30.9425 32.2068L30.931 32.1838V32.1723L30.9195 32.1494L30.908 32.1264V32.1149L30.8966 32.0919L30.8851 32.0689L30.8736 32.0459L30.8621 32.0229L30.8506 31.9999L30.8391 31.9769V31.9654L30.8276 31.9425L30.8161 31.9195L30.8046 31.908L30.7931 31.8965L30.7816 31.885L30.7701 31.862L30.7471 31.839L30.7356 31.8275L30.7241 31.816L30.7012 31.793L30.6782 31.77L30.6552 31.7585L30.6322 31.7471L30.6092 31.7356L30.5977 31.7241L30.5747 31.7126L30.5517 31.7011H30.5402L30.5172 31.6896H30.5057L30.4828 31.6781L30.4598 31.6666L30.4368 31.6551H30.4253L30.4023 31.6436L30.3793 31.6321L30.3678 31.6206L30.3563 31.6091H30.3448L30.3218 31.5976H30.3103L30.2874 31.5861L30.3448 28.8735Z" fill="#102A83"/>
<path d="M28.0805 45.3677H26.5747V45.1148L27.3218 44.2987C27.4253 44.1838 27.5057 44.0803 27.5517 43.9998C27.5977 43.9194 27.6207 43.8389 27.6207 43.7585C27.6207 43.655 27.5862 43.5631 27.5287 43.4941C27.4713 43.4251 27.3908 43.3906 27.2874 43.3906C27.1609 43.3906 27.069 43.4251 27 43.5056C26.931 43.5746 26.8966 43.678 26.8966 43.8044H26.5172C26.5172 43.6665 26.5517 43.5401 26.6092 43.4366C26.6667 43.3332 26.7586 43.2412 26.8736 43.1838C26.9885 43.1263 27.1264 43.0918 27.2759 43.0918C27.4943 43.0918 27.6667 43.1493 27.7931 43.2527C27.9195 43.3677 27.977 43.5171 27.977 43.7125C27.977 43.8274 27.9425 43.9424 27.8851 44.0688C27.8161 44.1952 27.7126 44.3332 27.5747 44.4826L27.023 45.0688H28.069L28.0805 45.3677Z" fill="#102A83"/>
<path d="M29.8276 44.4137C29.8276 44.7355 29.7701 44.9769 29.6437 45.1493C29.5172 45.3102 29.3333 45.3907 29.092 45.3907C28.8506 45.3907 28.6667 45.3102 28.5402 45.1493C28.4138 44.9884 28.3563 44.747 28.3563 44.4366V44.0458C28.3563 43.724 28.4138 43.4826 28.5402 43.3217C28.6667 43.1608 28.8506 43.0803 29.092 43.0803C29.3333 43.0803 29.5172 43.1608 29.6437 43.3217C29.7701 43.4826 29.8276 43.7125 29.8276 44.0229V44.4137ZM29.4483 43.9999C29.4483 43.793 29.4138 43.632 29.3563 43.5401C29.2989 43.4366 29.2069 43.3907 29.0805 43.3907C28.954 43.3907 28.8736 43.4366 28.8046 43.5286C28.7471 43.6206 28.7126 43.77 28.7126 43.9654V44.4711C28.7126 44.678 28.7471 44.8389 28.8046 44.9424C28.8621 45.0458 28.954 45.0918 29.0805 45.0918C29.1954 45.0918 29.2874 45.0458 29.3448 44.9539C29.4023 44.8619 29.4368 44.7125 29.4368 44.5056V43.9999H29.4483Z" fill="#102A83"/>
<path d="M31.6207 44.4137C31.6207 44.7355 31.5632 44.9769 31.4368 45.1493C31.3103 45.3102 31.1264 45.3907 30.8851 45.3907C30.6437 45.3907 30.4598 45.3102 30.3333 45.1493C30.2069 44.9884 30.1494 44.747 30.1494 44.4366V44.0458C30.1494 43.724 30.2069 43.4826 30.3333 43.3217C30.4598 43.1608 30.6437 43.0803 30.8851 43.0803C31.1264 43.0803 31.3103 43.1608 31.4368 43.3217C31.5632 43.4826 31.6207 43.7125 31.6207 44.0229V44.4137ZM31.2529 43.9999C31.2529 43.793 31.2184 43.632 31.1609 43.5401C31.1035 43.4366 31.0115 43.3907 30.8851 43.3907C30.7586 43.3907 30.6782 43.4366 30.6092 43.5286C30.5517 43.6206 30.5172 43.77 30.5172 43.9654V44.4711C30.5172 44.678 30.5517 44.8389 30.6092 44.9424C30.6667 45.0458 30.7586 45.0918 30.8851 45.0918C31 45.0918 31.092 45.0458 31.1494 44.9539C31.2069 44.8619 31.2414 44.7125 31.2414 44.5056V43.9999H31.2529Z" fill="#102A83"/>
<path d="M33.023 44.4251C32.8965 44.5631 32.7471 44.6205 32.5862 44.6205C32.3908 44.6205 32.2299 44.5516 32.1149 44.4136C32 44.2757 31.9425 44.0918 31.9425 43.8734C31.9425 43.724 31.977 43.5861 32.0345 43.4711C32.092 43.3562 32.1839 43.2527 32.2874 43.1952C32.3908 43.1378 32.5287 43.0918 32.6667 43.0918C32.8966 43.0918 33.069 43.1723 33.2069 43.3447C33.3448 43.5171 33.4023 43.7355 33.4023 44.0228V44.1263C33.4023 44.5286 33.3103 44.8389 33.1264 45.0573C32.9425 45.2757 32.6667 45.3792 32.3103 45.3792H32.2644V45.0573H32.3218C32.5402 45.0573 32.7126 44.9998 32.8276 44.8964C32.9425 44.7929 33 44.6435 33.023 44.4251ZM32.6552 44.3332C32.7356 44.3332 32.8046 44.3102 32.8621 44.2642C32.931 44.2182 32.977 44.1608 33.0115 44.0803V43.9309C33.0115 43.77 32.977 43.632 32.908 43.5286C32.8391 43.4251 32.7471 43.3792 32.6437 43.3792C32.5402 43.3792 32.4483 43.4251 32.3908 43.5171C32.3218 43.609 32.2988 43.724 32.2988 43.8504C32.2988 43.9883 32.3333 44.1033 32.3908 44.1952C32.4483 44.2872 32.5517 44.3332 32.6552 44.3332Z" fill="#102A83"/>
</svg>
