<svg width="21" height="20" viewBox="0 0 21 20" fill="none" xmlns="http://www.w3.org/2000/svg">
<path d="M3.9999 0.599998C2.01168 0.599998 0.399902 2.21177 0.399902 4.2V13.8C0.399902 15.7882 2.01168 17.4 3.9999 17.4H9.52112C9.32543 17.0165 9.16762 16.6146 9.05008 16.2H3.9999C2.67442 16.2 1.5999 15.1255 1.5999 13.8V4.2C1.5999 2.87452 2.67442 1.8 3.9999 1.8H13.5999C14.9254 1.8 15.9999 2.87452 15.9999 4.2V7.82733C16.23 7.84833 16.4595 7.88146 16.6875 7.92682C16.8603 7.96119 17.0312 8.00239 17.1999 8.05019V4.2C17.1999 2.21177 15.5881 0.599998 13.5999 0.599998H3.9999ZM8.82728 13.7994C8.89532 13.0548 9.08931 12.3282 9.3999 11.6504V9.6C9.3999 9.26863 9.13127 9 8.7999 9C8.46853 9 8.1999 9.26863 8.1999 9.6V13.2C8.1999 13.5314 8.46853 13.8 8.7999 13.8C8.80908 13.8 8.81821 13.7998 8.82728 13.7994ZM12.8742 8.3024C13.1118 8.20397 13.3542 8.11986 13.5999 8.05019V4.8C13.5999 4.46863 13.3313 4.2 12.9999 4.2C12.6685 4.2 12.3999 4.46863 12.3999 4.8V8.52122C12.5547 8.44225 12.7129 8.36922 12.8742 8.3024ZM4.5999 6.6C4.26853 6.6 3.9999 6.86863 3.9999 7.2V13.2C3.9999 13.5314 4.26853 13.8 4.5999 13.8C4.93127 13.8 5.1999 13.5314 5.1999 13.2V7.2C5.1999 6.86863 4.93127 6.6 4.5999 6.6ZM12.4788 10.7305C12.8427 12.0279 12.0675 13.3706 10.762 13.7041L10.2087 13.8454C10.1908 14.0277 10.1815 14.2127 10.1815 14.4C10.1815 14.6252 10.1949 14.8471 10.2207 15.0651L10.6402 15.1643C11.9835 15.4819 12.7827 16.8644 12.3875 18.187L12.2359 18.6944C12.5445 18.9382 12.8802 19.1473 13.2375 19.3158L13.6275 18.9029C14.5753 17.8993 16.1722 17.9002 17.1189 18.9047L17.5237 19.3343C17.8746 19.1724 18.2051 18.9716 18.51 18.7371L18.3226 18.0692C17.9586 16.7718 18.7338 15.4291 20.0394 15.0956L20.592 14.9544C20.61 14.7721 20.6192 14.5872 20.6192 14.4C20.6192 14.1746 20.6058 13.9525 20.5799 13.7344L20.1611 13.6354C18.8178 13.3178 18.0186 11.9352 18.4138 10.6127L18.5653 10.1059C18.2566 9.86197 17.9208 9.65285 17.5635 9.48422L17.1739 9.89677C16.2261 10.9003 14.6292 10.8995 13.6825 9.89493L13.2776 9.46538C12.9267 9.62724 12.5962 9.828 12.2913 10.0624L12.4788 10.7305ZM15.4004 15.6C14.7376 15.6 14.2004 15.0627 14.2004 14.4C14.2004 13.7372 14.7376 13.2 15.4004 13.2C16.0631 13.2 16.6004 13.7372 16.6004 14.4C16.6004 15.0627 16.0631 15.6 15.4004 15.6Z" fill="#1E293B"/>
</svg>
