<svg width="16" height="16" viewBox="0 0 16 16" fill="none" xmlns="http://www.w3.org/2000/svg">
<path d="M1.50004 -0.00390625L1.58992 0.00414956C1.79401 0.0411935 1.95494 0.202125 1.99199 0.406218L2.00004 0.496094L1.99938 2.70762C3.16432 1.38448 4.74848 0.465876 6.54216 0.133438C10.8865 -0.671729 15.0609 2.1973 15.8661 6.54159C16.6712 10.8859 13.8022 15.0603 9.45792 15.8655C5.11362 16.6707 0.939086 13.8017 0.133921 9.45738C0.0472055 8.9895 -0.0236295 8.13787 0.00418329 7.47828C0.015817 7.20238 0.248907 6.98816 0.524804 6.99979C0.800701 7.01142 1.01493 7.24451 1.0033 7.52041C0.978844 8.10027 1.0435 8.87763 1.11718 9.27514C1.82169 13.0764 5.47442 15.5868 9.27569 14.8823C13.0769 14.1777 15.5873 10.5251 14.8828 6.72383C14.1783 2.92257 10.5256 0.412172 6.72439 1.11669C4.88523 1.45756 3.29914 2.50146 2.25844 3.99497L4.99805 3.99609L5.08792 4.00415C5.32117 4.04649 5.49805 4.25063 5.49805 4.49609C5.49805 4.74155 5.32117 4.9457 5.08792 4.98804L4.99805 4.99609H1.50004L1.41017 4.98804C1.20607 4.95099 1.04514 4.79006 1.0081 4.58597L1.00004 4.49609V0.496094L1.0081 0.406218C1.04514 0.202125 1.20607 0.0411935 1.41017 0.00414956L1.50004 -0.00390625ZM7.50004 3.99609L7.58992 4.00415C7.79401 4.04119 7.95494 4.20213 7.99199 4.40622L8.00004 4.49609V8H10L10.0899 8.00806C10.3232 8.05039 10.5 8.25454 10.5 8.5C10.5 8.74546 10.3232 8.94961 10.0899 8.99194L10 9H7.50004L7.41017 8.99194C7.20607 8.9549 7.04514 8.79397 7.0081 8.58988L7.00004 8.5V4.49609L7.0081 4.40622C7.04514 4.20213 7.20607 4.04119 7.41017 4.00415L7.50004 3.99609Z" fill="#1E293B"/>
</svg>
