<svg width="18" height="16" viewBox="0 0 18 16" fill="none" xmlns="http://www.w3.org/2000/svg">
<path d="M10.2673 0.209256C9.96736 -0.076431 9.49262 -0.0648876 9.20694 0.235039C8.92125 0.534965 8.93279 1.0097 9.23272 1.29539L15.4841 7.25H0.75C0.335787 7.25 0 7.58579 0 8C0 8.41421 0.335787 8.75 0.75 8.75H15.4842L9.23272 14.7047C8.93279 14.9904 8.92125 15.4651 9.20694 15.7651C9.49262 16.065 9.96736 16.0765 10.2673 15.7908L17.6862 8.72413C17.8551 8.56323 17.9551 8.358 17.9861 8.14463C17.9952 8.09783 18 8.04948 18 8C18 7.95043 17.9952 7.90198 17.986 7.8551C17.955 7.64186 17.855 7.43677 17.6862 7.27596L10.2673 0.209256Z" fill="#A3A3A3"/>
</svg>
