<svg width="22" height="28" viewBox="0 0 22 28" fill="none" xmlns="http://www.w3.org/2000/svg">
<path d="M17.9998 0.667316C20.0249 0.667316 21.6665 2.30894 21.6665 4.33398V23.665C21.6665 25.69 20.0249 27.3316 17.9998 27.3316H3.99967C1.97463 27.3316 0.333008 25.69 0.333008 23.665V4.33398C0.333008 2.6554 1.46096 1.24026 3.00027 0.80517L2.99918 3.0009C2.59464 3.30499 2.33301 3.78893 2.33301 4.33398V23.665C2.33301 24.5855 3.0792 25.3316 3.99967 25.3316H17.9998C18.9203 25.3316 19.6665 24.5855 19.6665 23.665V4.33398C19.6665 3.41351 18.9203 2.66732 17.9998 2.66732L14.9997 2.66663V0.666626L17.9998 0.667316ZM13.6665 0.666626V11.5185C13.6665 12.5147 12.6006 12.8887 11.9475 12.5377L11.8369 12.4682L9.00223 10.7543L6.2314 12.4229C5.56515 12.9038 4.45757 12.6085 4.34282 11.6792L4.33314 11.5185V0.666626H13.6665ZM11.6665 2.66663H6.33314V10.031L8.43084 8.76557C8.78323 8.58133 9.2096 8.57784 9.52047 8.73377L11.6665 10.0319V2.66663Z" fill="#555F6D"/>
</svg>
