<svg width="20" height="20" viewBox="0 0 20 20" fill="none" xmlns="http://www.w3.org/2000/svg">
<path d="M11.2999 2.48129C10.4654 2.14751 9.53457 2.14751 8.70013 2.48129L2.94291 4.78418C2.37343 5.01197 2 5.56353 2 6.17689V13.8228C2 14.4362 2.37343 14.9877 2.94291 15.2155L8.70013 17.5184C9.14121 17.6949 9.60922 17.778 10.0757 17.7679C9.83396 17.4412 9.62756 17.0868 9.46213 16.7102C9.32967 16.681 9.19902 16.641 9.07152 16.59L3.3143 14.2871C3.12448 14.2111 3 14.0273 3 13.8228V6.23834L9.50015 8.8384V12.2052C9.75203 11.6573 10.0913 11.1579 10.5001 10.7249V8.8384L17 6.23846V9.59971C17.3578 9.78261 17.6929 10.0035 18 10.2572V6.17689C18 5.56353 17.6266 5.01197 17.0571 4.78418L11.2999 2.48129ZM9.07152 3.40977C9.66755 3.17135 10.3324 3.17135 10.9285 3.40977L16.1538 5.4999L13.8751 6.41137L7.72133 3.94984L9.07152 3.40977ZM6.37504 4.48836L12.5289 6.94988L10.0001 7.96137L3.84633 5.49984L6.37504 4.48836ZM14.5 19C16.9853 19 19 16.9853 19 14.5C19 12.0147 16.9853 10 14.5 10C12.0147 10 10 12.0147 10 14.5C10 16.9853 12.0147 19 14.5 19ZM13.5 15.2929L16.1464 12.6464C16.3417 12.4512 16.6583 12.4512 16.8536 12.6464C17.0488 12.8417 17.0488 13.1583 16.8536 13.3536L13.8536 16.3536C13.6583 16.5488 13.3417 16.5488 13.1464 16.3536L12.1464 15.3536C11.9512 15.1583 11.9512 14.8417 12.1464 14.6464C12.3417 14.4512 12.6583 14.4512 12.8536 14.6464L13.5 15.2929Z" fill="#1E293B"/>
</svg>
