<svg width="18" height="17" viewBox="0 0 18 17" fill="none" xmlns="http://www.w3.org/2000/svg">
<path d="M9.96686 0.481289C9.13242 0.147513 8.20156 0.147513 7.36712 0.481289L1.60991 2.78418C1.04042 3.01197 0.666992 3.56353 0.666992 4.17689V11.8228C0.666992 12.4362 1.04042 12.9877 1.60991 13.2155L7.36712 15.5184C7.8082 15.6949 8.27622 15.778 8.74269 15.7679C8.50096 15.4412 8.29455 15.0868 8.12912 14.7102C7.99666 14.681 7.86601 14.641 7.73852 14.59L1.9813 12.2871C1.79147 12.2111 1.66699 12.0273 1.66699 11.8228V4.23834L8.16714 6.8384V10.2052C8.41902 9.6573 8.75831 9.15792 9.16714 8.7249V6.8384L15.667 4.23846V7.59971C16.0248 7.78261 16.3599 8.00353 16.667 8.25716V4.17689C16.667 3.56353 16.2936 3.01197 15.7241 2.78418L9.96686 0.481289ZM7.73852 1.40977C8.33454 1.17135 8.99944 1.17135 9.59547 1.40977L14.8208 3.4999L12.5421 4.41137L6.38833 1.94984L7.73852 1.40977ZM5.04204 2.48836L11.1958 4.94988L8.66714 5.96137L2.51333 3.49984L5.04204 2.48836ZM13.167 17C15.6523 17 17.667 14.9853 17.667 12.5C17.667 10.0147 15.6523 8 13.167 8C10.6817 8 8.66699 10.0147 8.66699 12.5C8.66699 14.9853 10.6817 17 13.167 17ZM12.167 13.2929L14.8134 10.6464C15.0087 10.4512 15.3253 10.4512 15.5205 10.6464C15.7158 10.8417 15.7158 11.1583 15.5205 11.3536L12.5205 14.3536C12.3253 14.5488 12.0087 14.5488 11.8134 14.3536L10.8134 13.3536C10.6182 13.1583 10.6182 12.8417 10.8134 12.6464C11.0087 12.4512 11.3253 12.4512 11.5205 12.6464L12.167 13.2929Z" fill="#1E293B"/>
</svg>
