<svg width="17" height="16" viewBox="0 0 17 16" fill="none" xmlns="http://www.w3.org/2000/svg">
<path d="M9.96686 0.4808C9.13242 0.147025 8.20156 0.147025 7.36712 0.4808L1.60991 2.78369C1.04042 3.01148 0.666992 3.56305 0.666992 4.1764V11.8223C0.666992 12.4357 1.04042 12.9873 1.60991 13.2151L7.36712 15.5179C8.20156 15.8517 9.13242 15.8517 9.96686 15.5179L15.7241 13.2151C16.2936 12.9873 16.667 12.4357 16.667 11.8223V4.1764C16.667 3.56305 16.2936 3.01148 15.7241 2.78369L9.96686 0.4808ZM7.73852 1.40928C8.33454 1.17087 8.99944 1.17087 9.59547 1.40928L14.8208 3.49941L12.5421 4.41088L6.38833 1.94935L7.73852 1.40928ZM5.04204 2.48787L11.1958 4.94939L8.66714 5.96088L2.51333 3.49935L5.04204 2.48787ZM9.16714 6.83791L15.667 4.23797V11.8223C15.667 12.0268 15.5425 12.2106 15.3527 12.2866L9.59547 14.5895C9.45588 14.6453 9.31251 14.6881 9.16714 14.7177V6.83791ZM8.16714 6.83791V14.7178C8.02166 14.6881 7.8782 14.6453 7.73852 14.5895L1.9813 12.2866C1.79147 12.2106 1.66699 12.0268 1.66699 11.8223V4.23785L8.16714 6.83791Z" fill="#1E293B"/>
</svg>
