<svg width="20" height="20" viewBox="0 0 20 20" fill="none" xmlns="http://www.w3.org/2000/svg">
<path d="M3.1002 3.89998C3.1002 2.07744 4.57766 0.599976 6.4002 0.599976H16.6002C18.4227 0.599976 19.9002 2.07744 19.9002 3.89998V14.1C19.9002 15.9225 18.4227 17.4 16.6002 17.4H11.6458L9.77393 15.5281C10.0292 14.9947 10.1995 14.4128 10.2672 13.8H15.7002C16.0316 13.8 16.3002 13.5313 16.3002 13.2C16.3002 12.8686 16.0316 12.6 15.7002 12.6H10.2672C9.96877 9.90001 7.67973 7.79998 4.9002 7.79998C4.26905 7.79998 3.6632 7.90825 3.1002 8.10725V3.89998ZM7.6002 6.59998C8.09725 6.59998 8.5002 6.19703 8.5002 5.69998C8.5002 5.20292 8.09725 4.79998 7.6002 4.79998C7.10314 4.79998 6.7002 5.20292 6.7002 5.69998C6.7002 6.19703 7.10314 6.59998 7.6002 6.59998ZM10.3002 5.99998C10.3002 6.33135 10.5688 6.59998 10.9002 6.59998H15.7002C16.0316 6.59998 16.3002 6.33135 16.3002 5.99998C16.3002 5.66861 16.0316 5.39998 15.7002 5.39998H10.9002C10.5688 5.39998 10.3002 5.66861 10.3002 5.99998ZM10.9002 8.99998C10.5688 8.99998 10.3002 9.26861 10.3002 9.59998C10.3002 9.93135 10.5688 10.2 10.9002 10.2H15.7002C16.0316 10.2 16.3002 9.93135 16.3002 9.59998C16.3002 9.26861 16.0316 8.99998 15.7002 8.99998H10.9002ZM4.9002 17.4C5.84363 17.4 6.71442 17.0889 7.41558 16.5637L10.4759 19.6242C10.7102 19.8585 11.0901 19.8585 11.3245 19.6242C11.5588 19.3899 11.5588 19.01 11.3245 18.7757L8.26409 15.7152C8.78918 15.0141 9.1002 14.1433 9.1002 13.2C9.1002 10.8804 7.21979 8.99998 4.9002 8.99998C2.5806 8.99998 0.700195 10.8804 0.700195 13.2C0.700195 15.5196 2.5806 17.4 4.9002 17.4ZM4.9002 16.2C3.24334 16.2 1.9002 14.8568 1.9002 13.2C1.9002 11.5431 3.24334 10.2 4.9002 10.2C6.55705 10.2 7.9002 11.5431 7.9002 13.2C7.9002 14.8568 6.55705 16.2 4.9002 16.2Z" fill="white"/>
</svg>
