<svg width="29" height="26" viewBox="0 0 29 26" fill="none" xmlns="http://www.w3.org/2000/svg">
<path d="M10.6665 8.33337C10.6665 9.43794 9.77107 10.3334 8.6665 10.3334C7.56193 10.3334 6.6665 9.43794 6.6665 8.33337C6.6665 7.2288 7.56193 6.33337 8.6665 6.33337C9.77107 6.33337 10.6665 7.2288 10.6665 8.33337ZM5.33317 12.6667C5.33317 12.1144 5.78089 11.6667 6.33317 11.6667H10.9998C11.5521 11.6667 11.9998 12.1144 11.9998 12.6667V13C11.9998 13 11.9998 15.6667 8.6665 15.6667C5.33317 15.6667 5.33317 13 5.33317 13V12.6667ZM14.6665 8.50004C14.6665 8.0398 15.0396 7.66671 15.4998 7.66671H21.8332C22.2934 7.66671 22.6665 8.0398 22.6665 8.50004C22.6665 8.75241 22.5543 8.97857 22.3771 9.13139C22.1234 9.18387 21.8752 9.25153 21.6335 9.33337H15.4998C15.0396 9.33337 14.6665 8.96028 14.6665 8.50004ZM25.6665 3.16671V9.32231C26.267 9.52203 26.8276 9.80922 27.3332 10.1688V3.16671C27.3332 1.6019 26.0646 0.333374 24.4998 0.333374H3.49984C1.93503 0.333374 0.666504 1.6019 0.666504 3.16671V18.8334C0.666504 20.3982 1.93503 21.6667 3.49984 21.6667H18.6665V20H3.49984C2.8555 20 2.33317 19.4777 2.33317 18.8334V3.16671C2.33317 2.52238 2.85551 2.00004 3.49984 2.00004H24.4998C25.1442 2.00004 25.6665 2.52238 25.6665 3.16671ZM15.4998 12.3334H18.0874C17.809 12.85 17.6002 13.4098 17.4738 14H15.4998C15.0396 14 14.6665 13.6269 14.6665 13.1667C14.6665 12.7065 15.0396 12.3334 15.4998 12.3334ZM19.6661 12.3334C19.2959 12.8262 19.0147 13.3897 18.8462 14C18.7291 14.4245 18.6665 14.8716 18.6665 15.3334C18.6665 17.4607 19.995 19.2777 21.8677 20C22.4259 20.2153 23.0324 20.3334 23.6665 20.3334C25.1152 20.3334 26.42 19.7173 27.3332 18.7328C28.1606 17.8407 28.6665 16.6461 28.6665 15.3334C28.6665 14.0207 28.1606 12.8261 27.3332 11.934C26.8682 11.4327 26.3018 11.027 25.6665 10.7494C25.054 10.4818 24.3776 10.3334 23.6665 10.3334C22.0307 10.3334 20.5783 11.1189 19.6661 12.3334ZM23.7054 21.6667C24.5153 21.6618 25.2891 21.505 25.9998 21.2232C26.0198 21.2152 26.0398 21.2072 26.0596 21.1991C26.5128 21.014 26.9396 20.778 27.3332 20.4981V24.9719C27.3332 25.5386 26.6903 25.866 26.232 25.5327L23.6665 23.6668L21.101 25.5327C20.6427 25.866 19.9998 25.5386 19.9998 24.9719V20.4981C20.4106 20.7903 20.8578 21.0347 21.3332 21.2232C22.0439 21.505 22.8177 21.6618 23.6276 21.6667C23.6406 21.6668 23.6535 21.6668 23.6665 21.6668C23.6795 21.6668 23.6924 21.6668 23.7054 21.6667Z" fill="#555F6D"/>
</svg>
