<svg width="14" height="14" viewBox="0 0 14 14" fill="none" xmlns="http://www.w3.org/2000/svg">
<path d="M2.64645 6.14645C2.84171 5.95118 3.15829 5.95118 3.35355 6.14645L5.35355 8.14645C5.44732 8.24022 5.5 8.36739 5.5 8.5C5.5 8.63261 5.44732 8.75978 5.35355 8.85355L3.35355 10.8536C3.15829 11.0488 2.84171 11.0488 2.64645 10.8536C2.45118 10.6583 2.45118 10.3417 2.64645 10.1464L4.29289 8.5L2.64645 6.85355C2.45118 6.65829 2.45118 6.34171 2.64645 6.14645ZM11.5 10H6.5C6.22386 10 6 10.2239 6 10.5C6 10.7761 6.22386 11 6.5 11H11.5C11.7761 11 12 10.7761 12 10.5C12 10.2239 11.7761 10 11.5 10ZM-0.00390625 2.5C-0.00390625 1.11929 1.11538 0 2.49609 0H11.4961C12.8768 0 13.9961 1.11929 13.9961 2.5V3H13.999V4H13.9961V11.5C13.9961 12.8807 12.8768 14 11.4961 14H2.49609C1.11538 14 -0.00390625 12.8807 -0.00390625 11.5V2.5ZM12.9961 3V2.5C12.9961 1.67157 12.3245 1 11.4961 1H2.49609C1.66767 1 0.996094 1.67157 0.996094 2.5V3H12.9961ZM0.996094 4V11.5C0.996094 12.3284 1.66767 13 2.49609 13H11.4961C12.3245 13 12.9961 12.3284 12.9961 11.5V4H0.996094Z" fill="#1E293B"/>
</svg>
