<svg width="25" height="25" viewBox="0 0 25 25" fill="none" xmlns="http://www.w3.org/2000/svg">
<path d="M13.1667 11.8658H21.0004C21.3974 11.4608 21.9115 11.1712 22.4879 11.0516C22.2151 5.17303 17.3627 0.490761 11.4167 0.490761C5.29551 0.490761 0.333332 5.45294 0.333332 11.5741C0.333332 17.4996 4.98334 22.339 10.8333 22.6423V20.9074L10.8334 20.8895C5.95044 20.5884 2.08333 16.5329 2.08333 11.5741C2.08333 6.51701 6.1053 2.39932 11.125 2.24523V9.82409C11.125 10.9517 12.0391 11.8658 13.1667 11.8658ZM13.1667 10.1158C13.0056 10.1158 12.875 9.98518 12.875 9.82409V2.35402C16.8618 2.97959 20.0112 6.12897 20.6367 10.1158H13.1667ZM23.0833 12.1574C22.1168 12.1574 21.3333 12.9409 21.3333 13.9074V23.2408C21.3333 24.2073 22.1168 24.9908 23.0833 24.9908C24.0498 24.9908 24.8333 24.2073 24.8333 23.2408V13.9074C24.8333 12.9409 24.0498 12.1574 23.0833 12.1574ZM13.75 19.1574C12.7835 19.1574 12 19.9409 12 20.9074V23.2408C12 24.2073 12.7835 24.9908 13.75 24.9908C14.7165 24.9908 15.5 24.2073 15.5 23.2408V20.9074C15.5 19.9409 14.7165 19.1574 13.75 19.1574ZM16.6667 17.4074C16.6667 16.4409 17.4502 15.6574 18.4167 15.6574C19.3832 15.6574 20.1667 16.4409 20.1667 17.4074V23.2408C20.1667 24.2073 19.3832 24.9908 18.4167 24.9908C17.4502 24.9908 16.6667 24.2073 16.6667 23.2408V17.4074Z" fill="#334155"/>
</svg>
