<svg width="16" height="14" viewBox="0 0 16 14" fill="none" xmlns="http://www.w3.org/2000/svg">
<path d="M4.16699 14C2.78628 14 1.66699 12.8807 1.66699 11.5V7.5C1.66699 7.22386 1.89085 7 2.16699 7C2.44313 7 2.66699 7.22386 2.66699 7.5V11.5C2.66699 12.3284 3.33857 13 4.16699 13H13.167C13.9954 13 14.667 12.3284 14.667 11.5V3.99997L14.6611 4L5.15829 4C5.15829 3.64209 5.03099 3.28417 4.77638 3H14.6611L14.667 3.00003V2.5C14.667 1.67157 13.9954 1 13.167 1H4.16699C3.33857 1 2.66699 1.67157 2.66699 2.5V4.29289L3.31344 3.64645C3.5087 3.45118 3.82528 3.45118 4.02055 3.64645C4.21581 3.84171 4.21581 4.15829 4.02055 4.35355L2.52055 5.85355C2.32528 6.04882 2.0087 6.04882 1.81344 5.85355L0.313439 4.35355C0.118177 4.15829 0.118177 3.84171 0.313439 3.64645C0.508701 3.45118 0.825283 3.45118 1.02055 3.64645L1.66699 4.29289V2.5C1.66699 1.11929 2.78628 0 4.16699 0H13.167C14.5477 0 15.667 1.11929 15.667 2.5V11.5C15.667 12.8807 14.5477 14 13.167 14H4.16699ZM6.66699 7C6.66699 7.55229 6.21928 8 5.66699 8C5.11471 8 4.66699 7.55229 4.66699 7C4.66699 6.44771 5.11471 6 5.66699 6C6.21928 6 6.66699 6.44771 6.66699 7ZM5.66699 11C6.21928 11 6.66699 10.5523 6.66699 10C6.66699 9.44771 6.21928 9 5.66699 9C5.11471 9 4.66699 9.44771 4.66699 10C4.66699 10.5523 5.11471 11 5.66699 11ZM9.66699 7C9.66699 7.55229 9.21928 8 8.66699 8C8.11471 8 7.66699 7.55229 7.66699 7C7.66699 6.44771 8.11471 6 8.66699 6C9.21928 6 9.66699 6.44771 9.66699 7ZM8.66699 11C9.21928 11 9.66699 10.5523 9.66699 10C9.66699 9.44771 9.21928 9 8.66699 9C8.11471 9 7.66699 9.44771 7.66699 10C7.66699 10.5523 8.11471 11 8.66699 11ZM12.667 7C12.667 7.55229 12.2193 8 11.667 8C11.1147 8 10.667 7.55229 10.667 7C10.667 6.44771 11.1147 6 11.667 6C12.2193 6 12.667 6.44771 12.667 7Z" fill="#1E293B"/>
</svg>
