<svg width="17" height="16" viewBox="0 0 17 16" fill="none" xmlns="http://www.w3.org/2000/svg">
<path d="M12.167 0C13.5477 0 14.667 1.11929 14.667 2.5V6.59971C14.3502 6.43777 14.0156 6.30564 13.667 6.20703V4H1.66699V11.5C1.66699 12.3284 2.33857 13 3.16699 13H6.87402C6.97263 13.3486 7.10476 13.6832 7.2667 14H3.16699C1.78628 14 0.666992 12.8807 0.666992 11.5V2.5C0.666992 1.11929 1.78628 0 3.16699 0H12.167ZM12.167 1H3.16699C2.33857 1 1.66699 1.67157 1.66699 2.5V3H13.667V2.5C13.667 1.67157 12.9954 1 12.167 1ZM12.167 16C14.6523 16 16.667 13.9853 16.667 11.5C16.667 9.01472 14.6523 7 12.167 7C9.68171 7 7.66699 9.01472 7.66699 11.5C7.66699 13.9853 9.68171 16 12.167 16ZM11.2705 9.60355L10.3741 10.5H11.917C13.4358 10.5 14.667 11.7312 14.667 13.25V13.5C14.667 13.7761 14.4431 14 14.167 14C13.8909 14 13.667 13.7761 13.667 13.5V13.25C13.667 12.2835 12.8835 11.5 11.917 11.5H10.3741L11.2705 12.3964C11.4658 12.5917 11.4658 12.9083 11.2705 13.1036C11.0753 13.2988 10.7587 13.2988 10.5634 13.1036L8.81132 11.3514C8.76444 11.304 8.72897 11.2495 8.70493 11.1914C8.68048 11.1324 8.66699 11.0678 8.66699 11C8.66699 10.9322 8.68048 10.8676 8.70493 10.8086C8.72933 10.7496 8.7655 10.6944 8.81344 10.6464L10.5634 8.89645C10.7587 8.70118 11.0753 8.70118 11.2705 8.89645C11.4658 9.09171 11.4658 9.40829 11.2705 9.60355Z" fill="#1E293B"/>
</svg>
