<svg width="17" height="16" viewBox="0 0 17 16" fill="none" xmlns="http://www.w3.org/2000/svg">
<path d="M14.667 2.5C14.667 1.11929 13.5477 0 12.167 0H3.16699C1.78628 0 0.666992 1.11929 0.666992 2.5V11.5C0.666992 12.8807 1.78628 14 3.16699 14H7.2667C7.10476 13.6832 6.97263 13.3486 6.87403 13H3.16699C2.33856 13 1.66699 12.3284 1.66699 11.5V4H13.667V6.20703C14.0156 6.30564 14.3502 6.43777 14.667 6.59971V2.5ZM3.16699 1H12.167C12.9954 1 13.667 1.67157 13.667 2.5V3H1.66699V2.5C1.66699 1.67157 2.33856 1 3.16699 1ZM16.667 11.5C16.667 13.9853 14.6523 16 12.167 16C9.68171 16 7.66699 13.9853 7.66699 11.5C7.66699 9.01472 9.68171 7 12.167 7C14.6523 7 16.667 9.01472 16.667 11.5ZM14.5201 11.854L14.5227 11.8514C14.5695 11.804 14.605 11.7495 14.6291 11.6914C14.6531 11.6333 14.6666 11.5697 14.667 11.503L14.667 11.5L14.667 11.497C14.6666 11.4303 14.6531 11.3667 14.6291 11.3086C14.6047 11.2496 14.5685 11.1944 14.5205 11.1464L12.5205 9.14645C12.3253 8.95118 12.0087 8.95118 11.8134 9.14645C11.6182 9.34171 11.6182 9.65829 11.8134 9.85355L12.9599 11H10.167C9.89085 11 9.66699 11.2239 9.66699 11.5C9.66699 11.7761 9.89085 12 10.167 12H12.9599L11.8134 13.1464C11.6182 13.3417 11.6182 13.6583 11.8134 13.8536C12.0087 14.0488 12.3253 14.0488 12.5205 13.8536L14.5201 11.854Z" fill="#1E293B"/>
</svg>
