<svg width="17" height="16" viewBox="0 0 17 16" fill="none" xmlns="http://www.w3.org/2000/svg">
<path d="M14.667 2.5C14.667 1.11929 13.5477 0 12.167 0H3.16699C1.78628 0 0.666992 1.11929 0.666992 2.5V11.5C0.666992 12.8807 1.78628 14 3.16699 14H7.2667C7.10476 13.6832 6.97263 13.3486 6.87403 13H3.16699C2.33856 13 1.66699 12.3284 1.66699 11.5V4H13.667V6.20703C14.0156 6.30564 14.3502 6.43777 14.667 6.59971V2.5ZM3.16699 1H12.167C12.9954 1 13.667 1.67157 13.667 2.5V3H1.66699V2.5C1.66699 1.67157 2.33856 1 3.16699 1ZM12.167 16C14.6523 16 16.667 13.9853 16.667 11.5C16.667 9.01472 14.6523 7 12.167 7C9.68171 7 7.66699 9.01472 7.66699 11.5C7.66699 13.9853 9.68171 16 12.167 16ZM11.667 9.5C11.667 9.22386 11.8909 9 12.167 9C12.4431 9 12.667 9.22386 12.667 9.5V11H13.667C13.9431 11 14.167 11.2239 14.167 11.5C14.167 11.7761 13.9431 12 13.667 12H12.167C11.8909 12 11.667 11.7761 11.667 11.5V9.5Z" fill="#1E293B"/>
</svg>
