<svg width="17" height="16" viewBox="0 0 17 16" fill="none" xmlns="http://www.w3.org/2000/svg">
<path d="M14.667 2.5C14.667 1.11929 13.5477 0 12.167 0H3.16699C1.78628 0 0.666992 1.11929 0.666992 2.5V11.5C0.666992 12.8807 1.78628 14 3.16699 14H7.2667C7.10476 13.6832 6.97263 13.3486 6.87403 13H3.16699C2.33856 13 1.66699 12.3284 1.66699 11.5V4H13.667V6.20703C14.0156 6.30564 14.3502 6.43777 14.667 6.59971V2.5ZM3.16699 1H12.167C12.9954 1 13.667 1.67157 13.667 2.5V3H1.66699V2.5C1.66699 1.67157 2.33856 1 3.16699 1ZM16.667 11.5C16.667 13.9853 14.6523 16 12.167 16C9.68171 16 7.66699 13.9853 7.66699 11.5C7.66699 9.01472 9.68171 7 12.167 7C14.6523 7 16.667 9.01472 16.667 11.5ZM11.547 8.5C11.3348 8.5 11.1458 8.63388 11.0753 8.83399L10.1954 11.334C10.1415 11.487 10.1652 11.6566 10.2589 11.789C10.3527 11.9213 10.5048 12 10.667 12H11.4428L10.9345 13.8688C10.8698 14.1069 10.9884 14.3566 11.2138 14.4569C11.4393 14.5571 11.7041 14.4779 11.8376 14.2704L14.0876 10.7704C14.1865 10.6165 14.1935 10.4209 14.1059 10.2604C14.0182 10.0999 13.8499 10 13.667 10H12.9207L13.2013 9.15811C13.2522 9.00564 13.2266 8.83803 13.1326 8.70764C13.0386 8.57726 12.8877 8.5 12.727 8.5H11.547Z" fill="#1E293B"/>
</svg>
