<svg width="18" height="18" viewBox="0 0 18 18" fill="none" xmlns="http://www.w3.org/2000/svg">
<path d="M7.33305 3.16667H10.6664C10.6664 2.24619 9.92019 1.5 8.99972 1.5C8.07924 1.5 7.33305 2.24619 7.33305 3.16667ZM6.08305 3.16667C6.08305 1.55584 7.38889 0.25 8.99972 0.25C10.6105 0.25 11.9164 1.55584 11.9164 3.16667H16.708C17.0532 3.16667 17.333 3.44649 17.333 3.79167C17.333 4.13684 17.0532 4.41667 16.708 4.41667H15.6088L14.6321 14.5093C14.4771 16.1112 13.1309 17.3333 11.5216 17.3333H6.47779C4.8685 17.3333 3.52234 16.1112 3.36732 14.5093L2.39061 4.41667H1.29138C0.946204 4.41667 0.666382 4.13684 0.666382 3.79167C0.666382 3.44649 0.946204 3.16667 1.29138 3.16667H6.08305ZM7.74972 7.125C7.74972 6.77982 7.46989 6.5 7.12472 6.5C6.77954 6.5 6.49972 6.77982 6.49972 7.125V13.375C6.49972 13.7202 6.77954 14 7.12472 14C7.46989 14 7.74972 13.7202 7.74972 13.375V7.125ZM10.8747 6.5C11.2199 6.5 11.4997 6.77982 11.4997 7.125V13.375C11.4997 13.7202 11.2199 14 10.8747 14C10.5295 14 10.2497 13.7202 10.2497 13.375V7.125C10.2497 6.77982 10.5295 6.5 10.8747 6.5ZM4.61151 14.3889C4.70452 15.35 5.51221 16.0833 6.47779 16.0833H11.5216C12.4872 16.0833 13.2949 15.35 13.3879 14.3889L14.353 4.41667H3.64645L4.61151 14.3889Z" fill="#334155"/>
</svg>
