<svg width="16" height="20" viewBox="0 0 16 20" fill="none" xmlns="http://www.w3.org/2000/svg">
<path d="M3 10.25C3 9.83579 3.33579 9.5 3.75 9.5C4.16421 9.5 4.5 9.83579 4.5 10.25C4.5 10.6642 4.16421 11 3.75 11C3.33579 11 3 10.6642 3 10.25ZM3.75 12.5C3.33579 12.5 3 12.8358 3 13.25C3 13.6642 3.33579 14 3.75 14C4.16421 14 4.5 13.6642 4.5 13.25C4.5 12.8358 4.16421 12.5 3.75 12.5ZM3 16.25C3 15.8358 3.33579 15.5 3.75 15.5C4.16421 15.5 4.5 15.8358 4.5 16.25C4.5 16.6642 4.16421 17 3.75 17C3.33579 17 3 16.6642 3 16.25ZM6.75 9.5C6.33579 9.5 6 9.83579 6 10.25C6 10.6642 6.33579 11 6.75 11H12.25C12.6642 11 13 10.6642 13 10.25C13 9.83579 12.6642 9.5 12.25 9.5H6.75ZM6 13.25C6 12.8358 6.33579 12.5 6.75 12.5H12.25C12.6642 12.5 13 12.8358 13 13.25C13 13.6642 12.6642 14 12.25 14H6.75C6.33579 14 6 13.6642 6 13.25ZM6.75 15.5C6.33579 15.5 6 15.8358 6 16.25C6 16.6642 6.33579 17 6.75 17H12.25C12.6642 17 13 16.6642 13 16.25C13 15.8358 12.6642 15.5 12.25 15.5H6.75ZM15.414 6.414L9.585 0.586C9.57005 0.571048 9.55311 0.55808 9.53628 0.545195C9.52385 0.535674 9.51147 0.526198 9.5 0.516C9.429 0.452 9.359 0.389 9.281 0.336C9.25573 0.318942 9.22806 0.305475 9.20052 0.292071C9.18447 0.284259 9.16846 0.276469 9.153 0.268C9.1363 0.258594 9.11966 0.248966 9.103 0.239326C9.0488 0.20797 8.99436 0.176475 8.937 0.152C8.74 0.0699999 8.528 0.029 8.313 0.0139999C8.2933 0.0127423 8.27377 0.0100789 8.2542 0.00740933C8.22708 0.00371051 8.19988 0 8.172 0H2C0.896 0 0 0.896 0 2V18C0 19.104 0.896 20 2 20H14C15.104 20 16 19.104 16 18V7.828C16 7.298 15.789 6.789 15.414 6.414ZM14.5 18C14.5 18.275 14.276 18.5 14 18.5H2C1.724 18.5 1.5 18.275 1.5 18V2C1.5 1.725 1.724 1.5 2 1.5H8V6C8 7.104 8.896 8 10 8H14.5V18ZM9.5 2.621L13.378 6.5H10C9.724 6.5 9.5 6.275 9.5 6V2.621Z" fill="#242424"/>
</svg>
