<svg width="12" height="16" viewBox="0 0 12 16" fill="none" xmlns="http://www.w3.org/2000/svg">
<path d="M11.5 14.9988C11.7761 14.9988 12 15.2226 12 15.4988C12 15.7442 11.8231 15.9484 11.5899 15.9907L11.5 15.9988H0.5C0.223858 15.9988 0 15.7749 0 15.4988C0 15.2533 0.176875 15.0492 0.410124 15.0068L0.5 14.9988H11.5ZM6.00014 0.000976562C6.2456 0.000976562 6.4497 0.177982 6.49197 0.411244L6.5 0.501122L6.496 12.295L10.1414 8.64664C10.3148 8.47292 10.5842 8.45338 10.7792 8.5882L10.8485 8.64599C11.0222 8.8194 11.0418 9.08881 10.907 9.2838L10.8492 9.3531L6.35745 13.8531C6.28495 13.9257 6.19568 13.9714 6.10207 13.9901L5.99608 13.9999C5.83511 13.9999 5.69192 13.9237 5.60051 13.8056L1.14386 9.35368C0.948459 9.15855 0.948234 8.84197 1.14336 8.64657C1.3168 8.47288 1.58621 8.4534 1.78117 8.58826L1.85046 8.64607L5.496 12.287L5.5 0.500831C5.50008 0.224689 5.724 0.000976562 6.00014 0.000976562Z" fill="#1E293B"/>
</svg>
