<svg width="18" height="18" viewBox="0 0 18 18" fill="none" xmlns="http://www.w3.org/2000/svg">
<path d="M16.4596 1.54009C15.295 0.375485 13.4068 0.375541 12.2423 1.54021L2.28391 11.4997C1.9453 11.8384 1.7073 12.2643 1.59638 12.7302L0.683391 16.5647C0.63312 16.7759 0.695984 16.998 0.849453 17.1515C1.00292 17.3049 1.22502 17.3678 1.43616 17.3175L5.27053 16.4046C5.73653 16.2936 6.1626 16.0555 6.50131 15.7168L16.4597 5.75718C17.6242 4.59261 17.6241 2.70459 16.4596 1.54009ZM13.1262 2.42404C13.8026 1.74758 14.8993 1.74754 15.5757 2.42397C16.2521 3.10034 16.2521 4.19694 15.5758 4.87335L14.833 5.61622L12.3836 3.16677L13.1262 2.42404ZM11.4997 4.05071L13.9492 6.50016L5.61737 14.8329C5.44225 15.0081 5.22195 15.1312 4.98101 15.1886L2.13464 15.8663L2.81239 13.0197C2.86973 12.7789 2.99278 12.5587 3.16784 12.3836L11.4997 4.05071Z" fill="#334155"/>
</svg>
