<svg width="154" height="148" viewBox="0 0 154 148" fill="none" xmlns="http://www.w3.org/2000/svg">
<path d="M83.0675 116.782C109.629 116.782 131.162 95.2489 131.162 68.5927C131.162 41.9366 109.534 20.403 83.0675 20.403C56.5063 20.403 34.9727 41.9366 34.9727 68.5927C34.9727 95.2489 56.5063 116.782 83.0675 116.782Z" fill="#EAEEF9"/>
<path d="M127.652 37.0986C129.8 37.0986 131.541 35.3573 131.541 33.2093C131.541 31.0613 129.8 29.3199 127.652 29.3199C125.504 29.3199 123.763 31.0613 123.763 33.2093C123.763 35.3573 125.504 37.0986 127.652 37.0986Z" fill="#EAEEF9"/>
<path d="M133.344 21.921C134.811 21.921 136 20.7318 136 19.2648C136 17.7979 134.811 16.6087 133.344 16.6087C131.877 16.6087 130.688 17.7979 130.688 19.2648C130.688 20.7318 131.877 21.921 133.344 21.921Z" fill="#EAEEF9"/>
<path d="M37.1542 37.0038C38.6211 37.0038 39.8103 35.8147 39.8103 34.3477C39.8103 32.8808 38.6211 31.6916 37.1542 31.6916C35.6872 31.6916 34.498 32.8808 34.498 34.3477C34.498 35.8147 35.6872 37.0038 37.1542 37.0038Z" fill="#F1F3F9"/>
<path d="M20.9328 88.2293C23.6571 88.2293 25.8656 86.0208 25.8656 83.2965C25.8656 80.5722 23.6571 78.3637 20.9328 78.3637C18.2085 78.3637 16 80.5722 16 83.2965C16 86.0208 18.2085 88.2293 20.9328 88.2293Z" fill="#EAEEF9"/>
<g filter="url(#filter0_d_1526_10582)">
<path d="M52.4589 105.779H127.301C129.745 105.779 131.732 103.796 131.732 101.359V36.2066C131.732 33.7686 129.745 31.7865 127.301 31.7865H52.006C41.5871 40.6193 34.9727 53.8194 34.9727 68.5929C34.9727 83.5794 41.7792 96.9468 52.4589 105.779Z" fill="url(#paint0_linear_1526_10582)"/>
</g>
<path d="M120.454 45.861H60.5264V56.831H120.454V45.861Z" fill="#D6DCE8"/>
<path d="M60.2286 56.8107H45.1523V91.7042H60.2286V56.8107Z" fill="white"/>
<path d="M120.434 45.861H60.2285V91.7245H120.434V45.861Z" fill="#F1F3F9" stroke="#D5DDEA" stroke-width="2" stroke-miterlimit="10" stroke-linecap="round" stroke-linejoin="round"/>
<path d="M105.596 91.7042H45.1523V56.8107H120.454" stroke="#D5DDEA" stroke-width="2" stroke-miterlimit="10" stroke-linecap="round" stroke-linejoin="round"/>
<path d="M120.454 68.7726H45.1523" stroke="#D5DDEA" stroke-width="2" stroke-miterlimit="10" stroke-linecap="round" stroke-linejoin="round"/>
<path d="M120.454 80.2389H45.1523" stroke="#D5DDEA" stroke-width="2" stroke-miterlimit="10" stroke-linecap="round" stroke-linejoin="round"/>
<path d="M75.4238 45.861V91.7046" stroke="#D5DDEA" stroke-width="2" stroke-miterlimit="10" stroke-linecap="round" stroke-linejoin="round"/>
<path d="M90.46 45.861V91.7046" stroke="#D5DDEA" stroke-width="2" stroke-miterlimit="10" stroke-linecap="round" stroke-linejoin="round"/>
<path d="M105.497 45.861V91.7046" stroke="#D5DDEA" stroke-width="2" stroke-miterlimit="10" stroke-linecap="round" stroke-linejoin="round"/>
<path d="M104.681 117.798C104.333 119.277 103.811 120.842 103.203 122.146C101.551 125.363 98.9421 127.885 95.725 129.537C92.4209 131.189 88.5081 131.884 84.5954 131.015C75.3787 129.102 69.4661 120.059 71.379 110.842C73.2919 101.626 82.2477 95.6261 91.4644 97.626C94.7685 98.3216 97.6379 99.9736 100.072 102.234C104.159 106.321 105.898 112.234 104.681 117.798Z" fill="url(#paint1_linear_1526_10582)"/>
<path d="M93.464 112.842H89.5513V108.929C89.5513 108.147 88.9427 107.451 88.0732 107.451C87.2906 107.451 86.595 108.06 86.595 108.929V112.842H82.6823C81.8997 112.842 81.2041 113.451 81.2041 114.32C81.2041 115.19 81.8128 115.798 82.6823 115.798H86.595V119.711C86.595 120.494 87.2037 121.189 88.0732 121.189C88.8557 121.189 89.5513 120.581 89.5513 119.711V115.798H93.464C94.2466 115.798 94.9422 115.19 94.9422 114.32C94.9422 113.451 94.2466 112.842 93.464 112.842Z" fill="white"/>
<defs>
<filter id="filter0_d_1526_10582" x="12.9727" y="20.7865" width="140.759" height="117.992" filterUnits="userSpaceOnUse" color-interpolation-filters="sRGB">
<feFlood flood-opacity="0" result="BackgroundImageFix"/>
<feColorMatrix in="SourceAlpha" type="matrix" values="0 0 0 0 0 0 0 0 0 0 0 0 0 0 0 0 0 0 127 0" result="hardAlpha"/>
<feOffset dy="11"/>
<feGaussianBlur stdDeviation="11"/>
<feColorMatrix type="matrix" values="0 0 0 0 0.397708 0 0 0 0 0.47749 0 0 0 0 0.575 0 0 0 0.27 0"/>
<feBlend mode="normal" in2="BackgroundImageFix" result="effect1_dropShadow_1526_10582"/>
<feBlend mode="normal" in="SourceGraphic" in2="effect1_dropShadow_1526_10582" result="shape"/>
</filter>
<linearGradient id="paint0_linear_1526_10582" x1="83.3206" y1="30.075" x2="83.3206" y2="106.576" gradientUnits="userSpaceOnUse">
<stop stop-color="#FDFEFF"/>
<stop offset="0.9964" stop-color="#ECF0F5"/>
</linearGradient>
<linearGradient id="paint1_linear_1526_10582" x1="71.0039" y1="114.32" x2="105.068" y2="114.32" gradientUnits="userSpaceOnUse">
<stop stop-color="#B0BACC"/>
<stop offset="1" stop-color="#969EAE"/>
</linearGradient>
</defs>
</svg>
