<svg width="24" height="25" viewBox="0 0 24 25" fill="none" xmlns="http://www.w3.org/2000/svg">
<g clip-path="url(#clip0_894_384)">
<path d="M24 12.6494C24 6.02199 18.6274 0.649414 12 0.649414C5.37258 0.649414 0 6.02199 0 12.6494C0 18.6389 4.3882 23.6034 10.125 24.5036V16.1182H7.07812V12.6494H10.125V10.0057C10.125 6.99816 11.9166 5.33691 14.6576 5.33691C15.9701 5.33691 17.3438 5.57129 17.3438 5.57129V8.52441H15.8306C14.34 8.52441 13.875 9.44949 13.875 10.3994V12.6494H17.2031L16.6711 16.1182H13.875V24.5036C19.6118 23.6034 24 18.6389 24 12.6494Z" fill="white"/>
</g>
<defs>
<clipPath id="clip0_894_384">
<rect width="24" height="24" fill="white" transform="translate(0 0.649414)"/>
</clipPath>
</defs>
</svg>
