<svg width="20" height="16" viewBox="0 0 20 16" fill="none" xmlns="http://www.w3.org/2000/svg">
<path d="M17.4002 10.0899C16.5122 10.6833 15.4681 11 14.4001 11C12.9679 11 11.5944 10.4311 10.5817 9.41838C9.56903 8.40568 9.0001 7.03217 9.0001 5.6C9.0001 4.53198 9.3168 3.48795 9.91016 2.59992C10.5035 1.71189 11.3469 1.01976 12.3336 0.61105C13.3203 0.202337 14.4061 0.0953987 15.4536 0.303759C16.5011 0.512119 17.4633 1.02642 18.2185 1.78162C18.9737 2.53683 19.488 3.49901 19.6963 4.54651C19.9047 5.59401 19.7978 6.67977 19.389 7.66649C18.9803 8.65321 18.2882 9.49658 17.4002 10.0899ZM14.8244 2.77573C14.7118 2.66321 14.5592 2.6 14.4001 2.6C14.241 2.6 14.0884 2.66321 13.9758 2.77573C13.8633 2.88826 13.8001 3.04087 13.8001 3.2V5H12.0001C11.841 5 11.6884 5.06321 11.5758 5.17573C11.4633 5.28826 11.4001 5.44087 11.4001 5.6C11.4001 5.75913 11.4633 5.91174 11.5758 6.02426C11.6884 6.13679 11.841 6.2 12.0001 6.2H13.8001V8C13.8001 8.15913 13.8633 8.31174 13.9758 8.42426C14.0884 8.53679 14.241 8.6 14.4001 8.6C14.5592 8.6 14.7118 8.53679 14.8244 8.42426C14.9369 8.31174 15.0001 8.15913 15.0001 8V6.2H16.8001C16.9592 6.2 17.1118 6.13679 17.2244 6.02426C17.3369 5.91174 17.4001 5.75913 17.4001 5.6C17.4001 5.44087 17.3369 5.28826 17.2244 5.17573C17.1118 5.06321 16.9592 5 16.8001 5H15.0001V3.2C15.0001 3.04087 14.9369 2.88826 14.8244 2.77573ZM7.827 5H1.2001L1.09225 5.00966C0.812348 5.06047 0.600098 5.30545 0.600098 5.6C0.600098 5.93137 0.868727 6.2 1.2001 6.2H7.827C7.8092 6.00238 7.8001 5.80225 7.8001 5.6C7.8001 5.39774 7.8092 5.19761 7.827 5ZM9.30869 9.8H3.6001L3.49225 9.80966C3.21235 9.86047 3.0001 10.1054 3.0001 10.4C3.0001 10.7314 3.26873 11 3.6001 11H10.6044C10.1206 10.6593 9.68472 10.2553 9.30869 9.8ZM5.89225 14.6097L6.0001 14.6H12.0001C12.3315 14.6 12.6001 14.8686 12.6001 15.2C12.6001 15.4945 12.3878 15.7395 12.1079 15.7903L12.0001 15.8H6.0001C5.66873 15.8 5.4001 15.5314 5.4001 15.2C5.4001 14.9054 5.61235 14.6605 5.89225 14.6097Z" fill="#1E293B"/>
</svg>
