<svg width="22" height="26" viewBox="0 0 22 26" fill="none" xmlns="http://www.w3.org/2000/svg">
<path d="M14.9996 2V10.4381C14.9996 11.2517 15.2477 12.046 15.7108 12.715L21.4209 20.9628C22.8948 23.0918 21.371 26 18.7816 26H3.2175C0.628117 26 -0.895645 23.0918 0.57826 20.9628L6.28833 12.715C6.75145 12.046 6.99956 11.2517 6.99956 10.4381V2H6C5.44772 2 5 1.55228 5 1C5 0.447715 5.44772 0 6 0H16C16.5523 0 17 0.447715 17 1C17 1.55228 16.5523 2 16 2H14.9996ZM8.99956 10.4381C8.99956 11.6585 8.62739 12.85 7.93272 13.8534L7.1389 15H14.8602L14.0664 13.8534C13.3717 12.8499 12.9996 11.6585 12.9996 10.4381V2H8.99956V10.4381ZM5.77231 16.974L2.22264 22.1013C1.66706 22.9038 2.24144 24 3.2175 24H18.7816C19.7577 24 20.3321 22.9038 19.7765 22.1013L16.2269 16.9741C16.154 16.9911 16.0781 17 16 17H6C5.92167 17 5.84545 16.991 5.77231 16.974Z" fill="#555F6D"/>
</svg>
