<svg width="25" height="23" viewBox="0 0 25 23" fill="none" xmlns="http://www.w3.org/2000/svg">
<path d="M17.4465 0.65741H2.95833L2.77861 0.663466C1.41269 0.755824 0.333332 1.89307 0.333332 3.28241V15.5351L0.339388 15.7148C0.431746 17.0807 1.56899 18.1601 2.95833 18.1601L7.9155 18.1597V21.0741L5.875 21.0746L5.75627 21.0826C5.32918 21.1405 5 21.5066 5 21.9496C5 22.4328 5.39175 22.8246 5.875 22.8246H18.125L18.2437 22.8166C18.6708 22.7587 19 22.3926 19 21.9496C19 21.4663 18.6082 21.0746 18.125 21.0746L16.0822 21.0741V18.1597L21.0403 18.1601L21.22 18.154C22.5859 18.0616 23.6653 16.9244 23.6653 15.5351V8.24131H21.9153V15.5351L21.9073 15.6538C21.8494 16.0809 21.4833 16.4101 21.0403 16.4101H2.95833L2.8396 16.4021C2.41251 16.3441 2.08333 15.978 2.08333 15.5351V3.28241L2.09132 3.16368C2.14926 2.73659 2.51535 2.40741 2.95833 2.40741H17.2498V1.53298C17.2498 1.21962 17.3203 0.922754 17.4465 0.65741ZM9.66433 18.1597H14.331L14.3322 21.0746H9.6655L9.66433 18.1597ZM18.4164 1.53241C18.4164 1.04916 18.8082 0.65741 19.2914 0.65741H23.9578C24.4411 0.65741 24.8328 1.04916 24.8328 1.53241V6.19908C24.8328 6.68233 24.4411 7.07408 23.9578 7.07408H19.2914C18.8082 7.07408 18.4164 6.68233 18.4164 6.19908V5.32408H18.0395C17.7705 5.32408 17.5316 5.49622 17.4465 5.75143L16.3803 8.95012C16.057 9.91993 15.1495 10.5741 14.1272 10.5741H13.1664V12.6157C13.1664 13.099 12.7747 13.4907 12.2914 13.4907H7.625C7.14175 13.4907 6.75 13.099 6.75 12.6157V7.94908C6.75 7.46583 7.14175 7.07408 7.625 7.07408H12.2914C12.7747 7.07408 13.1664 7.46583 13.1664 7.94908V8.82408H14.1272C14.3962 8.82408 14.635 8.65193 14.7201 8.39672L15.7863 5.19803C16.1096 4.22822 17.0172 3.57408 18.0395 3.57408H18.4164V1.53241ZM20.1664 4.46998V5.32408H23.0828V2.40741H20.1664V4.42817C20.1666 4.43512 20.1667 4.44209 20.1667 4.44908C20.1667 4.45606 20.1666 4.46303 20.1664 4.46998ZM8.5 8.82408V11.7407H11.4164V8.82408H8.5Z" fill="#334155"/>
</svg>
