<svg width="22" height="23" viewBox="0 0 22 23" fill="none" xmlns="http://www.w3.org/2000/svg">
<path d="M3 9.65742C3 8.27671 4.11929 7.15742 5.5 7.15742C6.88071 7.15742 8 8.27671 8 9.65742C8 11.0381 6.88071 12.1574 5.5 12.1574C4.11929 12.1574 3 11.0381 3 9.65742ZM5.5 8.65742C4.94772 8.65742 4.5 9.10514 4.5 9.65742C4.5 10.2097 4.94772 10.6574 5.5 10.6574C6.05228 10.6574 6.5 10.2097 6.5 9.65742C6.5 9.10514 6.05228 8.65742 5.5 8.65742ZM5.5 14.1574C4.11929 14.1574 3 15.2767 3 16.6574C3 18.0381 4.11929 19.1574 5.5 19.1574C6.88071 19.1574 8 18.0381 8 16.6574C8 15.2767 6.88071 14.1574 5.5 14.1574ZM4.5 16.6574C4.5 16.1051 4.94772 15.6574 5.5 15.6574C6.05228 15.6574 6.5 16.1051 6.5 16.6574C6.5 17.2097 6.05228 17.6574 5.5 17.6574C4.94772 17.6574 4.5 17.2097 4.5 16.6574ZM10 9.40742C10 8.99321 10.3358 8.65742 10.75 8.65742H18.25C18.6642 8.65742 19 8.99321 19 9.40742C19 9.82164 18.6642 10.1574 18.25 10.1574H10.75C10.3358 10.1574 10 9.82164 10 9.40742ZM10.75 15.6574C10.3358 15.6574 10 15.9932 10 16.4074C10 16.8216 10.3358 17.1574 10.75 17.1574H18.25C18.6642 17.1574 19 16.8216 19 16.4074C19 15.9932 18.6642 15.6574 18.25 15.6574H10.75ZM3 4.40742C3 3.99321 3.33579 3.65742 3.75 3.65742H18.25C18.6642 3.65742 19 3.99321 19 4.40742C19 4.82164 18.6642 5.15742 18.25 5.15742H3.75C3.33579 5.15742 3 4.82164 3 4.40742ZM3.75 0.157425C1.67893 0.157425 0 1.83636 0 3.90742V18.4074C0 20.4785 1.67893 22.1574 3.75 22.1574H18.25C20.3211 22.1574 22 20.4785 22 18.4074V3.90742C22 1.83636 20.3211 0.157425 18.25 0.157425H3.75ZM1.5 3.90742C1.5 2.66478 2.50736 1.65742 3.75 1.65742H18.25C19.4926 1.65742 20.5 2.66478 20.5 3.90742V18.4074C20.5 19.6501 19.4926 20.6574 18.25 20.6574H3.75C2.50736 20.6574 1.5 19.6501 1.5 18.4074V3.90742Z" fill="#3062D4"/>
</svg>
