<svg width="20" height="20" viewBox="0 0 20 20" fill="none" xmlns="http://www.w3.org/2000/svg">
<path d="M8.94556 0.047122L8.95049 0.0544276C9.29545 0.018445 9.64563 0 10.0001 0C15.523 0 20.0001 4.47715 20.0001 10C20.0001 15.5228 15.523 20 10.0001 20C6.79084 20 3.93466 18.4882 2.10488 16.1379L2.10232 16.1374L2.10279 16.1353C0.784964 14.4414 0.00012207 12.3123 0.00012207 10C0.00012207 4.83804 3.91129 0.589571 8.93183 0.0563919L8.94556 0.047122ZM10.0001 1.5C9.94689 1.5 9.89377 1.50049 9.84077 1.50146C9.96336 1.74566 10.095 2.0343 10.2145 2.35179C10.5614 3.27352 10.8803 4.6329 10.3144 5.83787C9.79184 6.95068 8.88969 7.23859 8.22431 7.41051L8.13966 7.43235C7.48331 7.60154 7.23093 7.6666 7.04683 7.9461C6.87785 8.20264 6.90345 8.52843 7.10821 9.19568C7.12261 9.24259 7.13818 9.2922 7.15442 9.34393C7.23552 9.60231 7.33329 9.91379 7.38425 10.2067C7.44765 10.5711 7.46556 11.0344 7.2322 11.4822C7.00071 11.9264 6.69387 12.2292 6.33132 12.4267C5.99078 12.6123 5.63806 12.6826 5.37417 12.7294L5.2812 12.7458C4.76633 12.8364 4.52004 12.8798 4.28017 13.1368C4.09397 13.3362 3.97379 13.6885 3.90361 14.2149C3.87504 14.4291 3.85786 14.6415 3.8401 14.8611L3.83056 14.9782C3.81058 15.2205 3.78581 15.4994 3.73133 15.7388L3.73103 15.7402C5.285 17.4364 7.51835 18.5 10.0001 18.5C11.5771 18.5 13.0538 18.0705 14.3197 17.3222C14.2213 17.222 14.1146 17.1044 14.0093 16.9718C13.6698 16.5444 13.2245 15.8081 13.3789 14.939C13.4531 14.5211 13.6771 14.1712 13.8936 13.9029C14.1142 13.6295 14.3804 13.3769 14.6132 13.1626C14.6685 13.1117 14.7215 13.0633 14.7723 13.0169C14.9505 12.8542 15.102 12.7159 15.2316 12.5802C15.4043 12.3991 15.4419 12.3175 15.4439 12.3133C15.5118 12.0886 15.4286 11.9294 15.3378 11.8592C15.2922 11.824 15.2311 11.7984 15.148 11.7978C15.0642 11.7971 14.9283 11.8222 14.7469 11.9372C14.5372 12.07 14.2321 12.152 13.9111 12.0228C13.6438 11.9151 13.4956 11.709 13.4245 11.5914C13.2806 11.3535 13.1997 11.0452 13.1471 10.8191C13.1065 10.6447 13.0677 10.4467 13.0324 10.2661C13.0182 10.1938 13.0046 10.1242 12.9917 10.0601C12.9411 9.81026 12.8985 9.63178 12.8576 9.52095C12.8576 9.52095 12.8519 9.50725 12.8383 9.48246C12.8236 9.45554 12.8028 9.42097 12.7743 9.37765C12.7163 9.28942 12.6405 9.1857 12.5466 9.06125C12.5125 9.01606 12.4758 8.96799 12.4374 8.91761C12.2763 8.70642 12.0844 8.45476 11.9211 8.20595C11.7253 7.90761 11.504 7.51768 11.434 7.10184C11.397 6.88146 11.3975 6.62694 11.489 6.36839C11.5826 6.10363 11.7536 5.88589 11.9756 5.7194C12.459 5.35683 13.1691 4.54683 13.7989 3.76036C14.0865 3.40123 14.3435 3.06476 14.5348 2.80938C13.2225 1.98001 11.6674 1.5 10.0001 1.5Z" fill="#242424"/>
</svg>
