<svg width="36" height="31" viewBox="0 0 36 31" fill="none" xmlns="http://www.w3.org/2000/svg">
<path d="M14.8118 0.993902C16.7662 -0.211997 19.2338 -0.211997 21.1881 0.993902L35.3483 9.73103C35.6603 9.92354 35.8522 10.2622 35.857 10.6288C35.8619 10.9953 35.6789 11.3389 35.3721 11.5396L29.4286 15.4262V24.9286C29.4286 25.3513 29.1967 25.6133 28.9244 25.8792C28.7892 26.0112 28.5936 26.1945 28.3401 26.4117C27.8339 26.8456 27.0934 27.4185 26.1405 27.9902C24.2365 29.1326 21.4579 30.2857 18 30.2857C14.5421 30.2857 11.7634 29.1326 9.85946 27.9902C8.90663 27.4185 8.16612 26.8456 7.65986 26.4117C7.40642 26.1945 7.21074 26.0112 7.07557 25.8792C6.80255 25.6125 6.57142 25.3554 6.57142 24.9286V15.4262L2.28571 12.6237V21.3571C2.28571 21.9489 1.80602 22.4286 1.21428 22.4286C0.622548 22.4286 0.142853 21.9489 0.142853 21.3571V11C0.142853 10.939 0.14795 10.8792 0.157743 10.821C0.147142 10.7581 0.142091 10.6938 0.142946 10.6288C0.147764 10.2622 0.339672 9.92354 0.651667 9.73103L14.8118 0.993902ZM8.71428 16.8275V24.4811C8.80613 24.5667 8.91974 24.6693 9.05441 24.7847C9.48566 25.1544 10.1291 25.653 10.962 26.1527C12.6294 27.1532 15.0294 28.1429 18 28.1429C20.9706 28.1429 23.3706 27.1532 25.038 26.1527C25.8709 25.653 26.5143 25.1544 26.9456 24.7847C27.0803 24.6693 27.1939 24.5667 27.2857 24.4811V16.8275L21.3229 20.7267C19.3043 22.0467 16.6957 22.0467 14.6771 20.7267L8.71428 16.8275ZM20.0629 2.81755C18.7983 2.03726 17.2017 2.03726 15.9371 2.81755L3.21212 10.6691L15.8499 18.9333C17.1561 19.7874 18.8439 19.7874 20.1501 18.9333L32.7879 10.6691L20.0629 2.81755Z" fill="#242424"/>
</svg>
