<svg width="12" height="16" viewBox="0 0 12 16" fill="none" xmlns="http://www.w3.org/2000/svg">
<path d="M2 8.5C2 8.22386 2.22386 8 2.5 8C2.77614 8 3 8.22386 3 8.5C3 8.77614 2.77614 9 2.5 9C2.22386 9 2 8.77614 2 8.5ZM2.5 10C2.22386 10 2 10.2239 2 10.5C2 10.7761 2.22386 11 2.5 11C2.77614 11 3 10.7761 3 10.5C3 10.2239 2.77614 10 2.5 10ZM2 12.5C2 12.2239 2.22386 12 2.5 12C2.77614 12 3 12.2239 3 12.5C3 12.7761 2.77614 13 2.5 13C2.22386 13 2 12.7761 2 12.5ZM4.5 8C4.22386 8 4 8.22386 4 8.5C4 8.77614 4.22386 9 4.5 9H9.5C9.77614 9 10 8.77614 10 8.5C10 8.22386 9.77614 8 9.5 8H4.5ZM4 10.5C4 10.2239 4.22386 10 4.5 10H9.5C9.77614 10 10 10.2239 10 10.5C10 10.7761 9.77614 11 9.5 11H4.5C4.22386 11 4 10.7761 4 10.5ZM4.5 12C4.22386 12 4 12.2239 4 12.5C4 12.7761 4.22386 13 4.5 13H9.5C9.77614 13 10 12.7761 10 12.5C10 12.2239 9.77614 12 9.5 12H4.5ZM2 0C0.895431 0 0 0.895431 0 2V14C0 15.1046 0.895431 16 2 16H10C11.1046 16 12 15.1046 12 14V5.41421C12 5.01639 11.842 4.63486 11.5607 4.35355L7.64645 0.43934C7.36514 0.158035 6.98361 0 6.58579 0H2ZM1 2C1 1.44772 1.44772 1 2 1H6V4.5C6 5.32843 6.67157 6 7.5 6H11V14C11 14.5523 10.5523 15 10 15H2C1.44772 15 1 14.5523 1 14V2ZM10.7929 5H7.5C7.22386 5 7 4.77614 7 4.5V1.20711L10.7929 5Z" fill="#1E293B"/>
</svg>
