<svg width="27" height="27" viewBox="0 0 27 27" fill="none" xmlns="http://www.w3.org/2000/svg">
<path d="M4.16667 0C1.86548 0 0 1.86548 0 4.16667V19.8333C0 22.1345 1.86548 24 4.16667 24H13.7668C13.4016 23.5202 13.0899 23.0101 12.8345 22.4699C12.8131 22.4246 12.792 22.379 12.7714 22.3333H4.16667C2.78595 22.3333 1.66667 21.214 1.66667 19.8333V4.16667C1.66667 2.78595 2.78595 1.66667 4.16667 1.66667H19.8333C21.214 1.66667 22.3333 2.78595 22.3333 4.16667V11.8236C22.383 11.8513 22.4325 11.8785 22.4821 11.905C22.9924 12.1788 23.4982 12.3908 24 12.5452V4.16667C24 1.86548 22.1345 0 19.8333 0H4.16667ZM24 13.9304C24.6975 14.1104 25.401 14.2 26.1111 14.2C26.4179 14.2 26.6667 14.4462 26.6667 14.75V18.6C26.6667 22.2675 24.4759 24.9622 20.2036 26.6284C20.0728 26.6794 19.9272 26.6794 19.7964 26.6284C18.0083 25.9311 16.5849 25.0536 15.534 24C15.4466 23.9123 15.3617 23.8234 15.2795 23.7333C14.8795 23.2953 14.5406 22.8286 14.2634 22.3333C14.1838 22.1912 14.1093 22.0468 14.0399 21.9C13.5702 20.9065 13.3333 19.8058 13.3333 18.6V14.75C13.3333 14.4462 13.5821 14.2 13.8889 14.2C15.8618 14.2 17.7837 13.5081 19.6667 12.11C19.8642 11.9633 20.1358 11.9633 20.3333 12.11C20.8366 12.4837 21.3427 12.807 21.8519 13.08C22.012 13.166 22.1725 13.2469 22.3333 13.3229C22.7876 13.5376 23.2444 13.7127 23.7037 13.8484C23.8023 13.8776 23.9011 13.9049 24 13.9304ZM15.5572 12.6667C16.6355 12.4061 17.724 11.885 18.8321 11.0688C18.7304 11.0245 18.6181 11 18.5 11H9.5C9.03976 11 8.66667 11.3731 8.66667 11.8333C8.66667 12.2936 9.03976 12.6667 9.5 12.6667H15.5572ZM12 18V16.3333H9.5C9.03976 16.3333 8.66667 16.7064 8.66667 17.1667C8.66667 17.6269 9.03976 18 9.5 18H12ZM7.33333 6.5C7.33333 7.23638 6.73638 7.83333 6 7.83333C5.26362 7.83333 4.66667 7.23638 4.66667 6.5C4.66667 5.76362 5.26362 5.16667 6 5.16667C6.73638 5.16667 7.33333 5.76362 7.33333 6.5ZM7.33333 11.8333C7.33333 12.5697 6.73638 13.1667 6 13.1667C5.26362 13.1667 4.66667 12.5697 4.66667 11.8333C4.66667 11.097 5.26362 10.5 6 10.5C6.73638 10.5 7.33333 11.097 7.33333 11.8333ZM6 18.5C6.73638 18.5 7.33333 17.903 7.33333 17.1667C7.33333 16.4303 6.73638 15.8333 6 15.8333C5.26362 15.8333 4.66667 16.4303 4.66667 17.1667C4.66667 17.903 5.26362 18.5 6 18.5ZM8.66667 6.5C8.66667 6.03976 9.03976 5.66667 9.5 5.66667H18.5C18.9602 5.66667 19.3333 6.03976 19.3333 6.5C19.3333 6.96024 18.9602 7.33333 18.5 7.33333H9.5C9.03976 7.33333 8.66667 6.96024 8.66667 6.5Z" fill="#555F6D"/>
</svg>
