<svg width="17" height="17" viewBox="0 0 17 17" fill="none" xmlns="http://www.w3.org/2000/svg">
<path d="M3 0C1.34315 0 0 1.34315 0 3V11C0 12.6569 1.34315 14 3 14H7.20703C7.11588 13.6777 7.05337 13.3434 7.02242 13H3C1.89543 13 1 12.1046 1 11V3C1 1.89543 1.89543 1 3 1H11C12.1046 1 13 1.89543 13 3V7.02242C13.3434 7.05337 13.6777 7.11588 14 7.20703V3C14 1.34315 12.6569 0 11 0H3ZM10.8536 4.85355C11.0488 4.65829 11.0488 4.34171 10.8536 4.14645C10.6583 3.95118 10.3417 3.95118 10.1464 4.14645L5.5 8.79289L3.85355 7.14645C3.65829 6.95118 3.34171 6.95118 3.14645 7.14645C2.95118 7.34171 2.95118 7.65829 3.14645 7.85355L5.14645 9.85355C5.34171 10.0488 5.65829 10.0488 5.85355 9.85355L10.8536 4.85355ZM12.5 8C14.9853 8 17 10.0147 17 12.5C17 14.9853 14.9853 17 12.5 17C10.0147 17 8 14.9853 8 12.5C8 10.0147 10.0147 8 12.5 8ZM14.8532 12.854L14.8557 12.8514C14.9026 12.804 14.938 12.7495 14.9621 12.6914C14.9861 12.6333 14.9996 12.5697 15 12.503L15 12.5L15 12.497C14.9996 12.4303 14.9861 12.3667 14.9621 12.3086C14.9377 12.2496 14.9015 12.1944 14.8536 12.1464L12.8536 10.1464C12.6583 9.95118 12.3417 9.95118 12.1464 10.1464C11.9512 10.3417 11.9512 10.6583 12.1464 10.8536L13.2929 12H10.5C10.2239 12 10 12.2239 10 12.5C10 12.7761 10.2239 13 10.5 13H13.2929L12.1464 14.1464C11.9512 14.3417 11.9512 14.6583 12.1464 14.8536C12.3417 15.0488 12.6583 15.0488 12.8536 14.8536L14.8532 12.854Z" fill="#ED662B"/>
</svg>
