<svg width="16" height="17" viewBox="0 0 16 17" fill="none" xmlns="http://www.w3.org/2000/svg">
<path d="M8.28349 9C8.20849 8.63056 8.05204 8.29071 7.83368 8H12.8335C13.1096 8 13.3335 8.22386 13.3335 8.5C13.3335 8.77614 13.1096 9 12.8335 9H8.28349ZM9.83368 10C10.052 10.2907 10.2085 10.6306 10.2835 11H12.8335C13.1096 11 13.3335 10.7761 13.3335 10.5C13.3335 10.2239 13.1096 10 12.8335 10H9.83368ZM12.8335 12H10.3335V13H12.8335C13.1096 13 13.3335 12.7761 13.3335 12.5C13.3335 12.2239 13.1096 12 12.8335 12ZM4.3335 2V7H3.8335C3.66226 7 3.49505 7.01722 3.3335 7.05001V2C3.3335 0.895431 4.22893 0 5.3335 0H9.91928C10.3171 0 10.6986 0.158035 10.9799 0.43934L14.8942 4.35355C15.1755 4.63486 15.3335 5.01639 15.3335 5.41421V14C15.3335 15.1046 14.4381 16 13.3335 16H10.2835C10.3163 15.8384 10.3335 15.6712 10.3335 15.5V15H13.3335C13.8858 15 14.3335 14.5523 14.3335 14V6H10.8335C10.0051 6 9.3335 5.32843 9.3335 4.5V1H5.3335C4.78121 1 4.3335 1.44772 4.3335 2ZM10.8335 5H14.1264L10.3335 1.20711V4.5C10.3335 4.77614 10.5574 5 10.8335 5ZM2.3335 10V9.5C2.3335 8.67157 3.00507 8 3.8335 8H5.8335C6.66192 8 7.3335 8.67157 7.3335 9.5V10H7.8335C8.66192 10 9.3335 10.6716 9.3335 11.5V13H7.3335V12.5C7.3335 12.2239 7.10964 12 6.8335 12C6.55735 12 6.3335 12.2239 6.3335 12.5V13H3.3335V12.5C3.3335 12.2239 3.10964 12 2.8335 12C2.55735 12 2.3335 12.2239 2.3335 12.5V13H0.333496V11.5C0.333496 10.6716 1.00507 10 1.8335 10H2.3335ZM3.3335 9.5V10H6.3335V9.5C6.3335 9.22386 6.10964 9 5.8335 9H3.8335C3.55735 9 3.3335 9.22386 3.3335 9.5ZM7.3335 14H9.3335V15.5C9.3335 16.3284 8.66192 17 7.8335 17H1.8335C1.00507 17 0.333496 16.3284 0.333496 15.5V14H2.3335V14.5C2.3335 14.7761 2.55735 15 2.8335 15C3.10964 15 3.3335 14.7761 3.3335 14.5V14H6.3335V14.5C6.3335 14.7761 6.55735 15 6.8335 15C7.10964 15 7.3335 14.7761 7.3335 14.5V14Z" fill="#1E293B"/>
</svg>
