<svg width="18" height="18" viewBox="0 0 18 18" fill="none" xmlns="http://www.w3.org/2000/svg">
<path d="M15.187 0.146447C14.9918 -0.0488155 14.6752 -0.0488155 14.4799 0.146447C14.2847 0.341709 14.2847 0.658291 14.4799 0.853553C15.615 1.98857 16.2085 3.72424 16.2085 5.5C16.2085 7.27576 15.615 9.01143 14.4799 10.1464C14.2847 10.3417 14.2847 10.6583 14.4799 10.8536C14.6752 11.0488 14.9918 11.0488 15.187 10.8536C16.552 9.48857 17.2085 7.47424 17.2085 5.5C17.2085 3.52576 16.552 1.51143 15.187 0.146447ZM13.187 2.14645C12.9918 1.95118 12.6752 1.95118 12.4799 2.14645C12.2847 2.34171 12.2847 2.65829 12.4799 2.85355C13.115 3.48857 13.4585 4.47424 13.4585 5.5C13.4585 6.52576 13.115 7.51143 12.4799 8.14645C12.2847 8.34171 12.2847 8.65829 12.4799 8.85355C12.6752 9.04882 12.9918 9.04882 13.187 8.85355C14.052 7.98857 14.4585 6.72424 14.4585 5.5C14.4585 4.27576 14.052 3.01143 13.187 2.14645ZM3.3335 6C3.3335 3.79086 5.12436 2 7.3335 2C9.54263 2 11.3335 3.79086 11.3335 6C11.3335 8.20914 9.54263 10 7.3335 10C5.12436 10 3.3335 8.20914 3.3335 6ZM7.3335 3C5.67664 3 4.3335 4.34315 4.3335 6C4.3335 7.65685 5.67664 9 7.3335 9C8.99035 9 10.3335 7.65685 10.3335 6C10.3335 4.34315 8.99035 3 7.3335 3ZM0.333496 13C0.333496 11.8869 1.23665 11 2.34222 11L12.3335 11C13.438 11 14.3335 11.8956 14.3335 13C14.3335 14.6912 13.5007 15.9663 12.1985 16.7966C10.9165 17.614 9.18824 18 7.3335 18C5.47875 18 3.75046 17.614 2.46849 16.7966C1.16631 15.9663 0.333496 14.6912 0.333496 13ZM2.34222 12C1.78136 12 1.3335 12.4467 1.3335 13C1.3335 14.3088 1.95576 15.2837 3.00611 15.9534C4.07668 16.636 5.59839 17 7.3335 17C9.06861 17 10.5903 16.636 11.6609 15.9534C12.7112 15.2837 13.3335 14.3088 13.3335 13C13.3335 12.4478 12.8857 12 12.3335 12L2.34222 12Z" fill="#1E293B"/>
</svg>
