<svg width="17" height="17" viewBox="0 0 17 17" fill="none" xmlns="http://www.w3.org/2000/svg">
<path d="M7 0C4.79086 0 3 1.79086 3 4C3 6.20914 4.79086 8 7 8C9.20914 8 11 6.20914 11 4C11 1.79086 9.20914 0 7 0ZM4 4C4 2.34315 5.34315 1 7 1C8.65685 1 10 2.34315 10 4C10 5.65685 8.65685 7 7 7C5.34315 7 4 5.65685 4 4ZM2.00873 9C0.903151 9 0 9.88687 0 11C0 12.6912 0.83281 13.9663 2.13499 14.7966C3.41697 15.614 5.14526 16 7 16V15C5.26489 15 3.74318 14.636 2.67262 13.9534C1.62226 13.2837 1 12.3088 1 11C1 10.4467 1.44786 10 2.00873 10L7.26756 10C7.61274 9.40329 8.25736 9.00147 8.99596 9L2.00873 9ZM12.5098 13.9269L8.01274 11.3036C8.10895 10.568 8.73815 10 9.5 10H15.5C16.3284 10 17 10.6716 17 11.5V11.509L12.5098 13.9269ZM12.7371 14.9402L17 12.6448V15.5C17 16.3284 16.3284 17 15.5 17H9.5C8.67157 17 8 16.3284 8 15.5V12.4539L12.2481 14.9319C12.3985 15.0196 12.5837 15.0228 12.7371 14.9402Z" fill="#1E293B"/>
</svg>
