<svg width="25" height="25" viewBox="0 0 25 25" fill="none" xmlns="http://www.w3.org/2000/svg">
<path d="M12.6913 0.957451L12.6751 0.957397H6.05C4.6969 0.957397 3.6 2.0543 3.6 3.4074V18.1074C3.6 19.4605 4.6969 20.5574 6.05 20.5574H10.8898C10.7622 20.1062 10.6747 19.6382 10.6314 19.1574H6.05C5.4701 19.1574 5 18.6873 5 18.1074V3.4074C5 2.8275 5.4701 2.3574 6.05 2.3574H12V7.2574C12 8.4172 12.9402 9.3574 14.1 9.3574H19V10.7888C19.4808 10.8321 19.9488 10.9196 20.4 11.0472V8.68227L20.3999 8.66612L20.4 8.6574C20.4 8.64765 20.3998 8.63795 20.3994 8.6283C20.3855 7.99807 20.1291 7.39659 19.6824 6.94986L14.4075 1.67499C13.9608 1.22826 13.3593 0.971863 12.7291 0.957991C12.7194 0.957597 12.7097 0.957397 12.7 0.957397L12.6913 0.957451ZM13.4 2.64775L13.4176 2.66493L18.6925 7.93981L18.7096 7.9574H14.1C13.7134 7.9574 13.4 7.644 13.4 7.2574V2.64775ZM5.7 21.9574H11.4396C11.6956 22.4583 12.0049 22.9274 12.36 23.3574H5.7C2.9938 23.3574 0.799999 21.1636 0.799999 18.4574V17.0574C0.799999 16.6708 1.1134 16.3574 1.5 16.3574C1.8866 16.3574 2.2 16.6708 2.2 17.0574V18.4574C2.2 20.3904 3.767 21.9574 5.7 21.9574ZM6.4 5.8574C6.4 5.4708 6.7134 5.1574 7.1 5.1574H9.9C10.2866 5.1574 10.6 5.4708 10.6 5.8574C10.6 6.244 10.2866 6.5574 9.9 6.5574H7.1C6.7134 6.5574 6.4 6.244 6.4 5.8574ZM7.1 7.9574C6.7134 7.9574 6.4 8.2708 6.4 8.6574C6.4 9.044 6.7134 9.3574 7.1 9.3574H9.9C10.2866 9.3574 10.6 9.044 10.6 8.6574C10.6 8.2708 10.2866 7.9574 9.9 7.9574H7.1ZM7.1 10.7574C6.7134 10.7574 6.4 11.0708 6.4 11.4574C6.4 11.844 6.7134 12.1574 7.1 12.1574H9.9C10.2866 12.1574 10.6 11.844 10.6 11.4574C10.6 11.0708 10.2866 10.7574 9.9 10.7574H7.1ZM24.6 18.4574C24.6 21.9368 21.7794 24.7574 18.3 24.7574C14.8206 24.7574 12 21.9368 12 18.4574C12 14.978 14.8206 12.1574 18.3 12.1574C21.7794 12.1574 24.6 14.978 24.6 18.4574ZM19 15.6574C19 15.2708 18.6866 14.9574 18.3 14.9574C17.9134 14.9574 17.6 15.2708 17.6 15.6574V17.7574H15.5C15.1134 17.7574 14.8 18.0708 14.8 18.4574C14.8 18.844 15.1134 19.1574 15.5 19.1574H17.6V21.2574C17.6 21.644 17.9134 21.9574 18.3 21.9574C18.6866 21.9574 19 21.644 19 21.2574V19.1574H21.1C21.4866 19.1574 21.8 18.844 21.8 18.4574C21.8 18.0708 21.4866 17.7574 21.1 17.7574H19V15.6574Z" fill="#334155"/>
</svg>
