<svg width="18" height="18" viewBox="0 0 18 18" fill="none" xmlns="http://www.w3.org/2000/svg">
<path d="M9 1.5C4.85786 1.5 1.5 4.85786 1.5 9C1.5 13.1421 4.85786 16.5 9 16.5C13.1421 16.5 16.5 13.1421 16.5 9C16.5 8.62365 16.4723 8.25377 16.4188 7.89229C16.3515 7.43823 16.6839 7 17.1429 7C17.5138 7 17.839 7.25624 17.8953 7.62279C17.9642 8.07178 18 8.53171 18 9C18 13.9706 13.9706 18 9 18C4.02944 18 0 13.9706 0 9C0 4.02944 4.02944 0 9 0C11.3051 0 13.4077 0.86656 15 2.29168V1.25C15 0.835786 15.3358 0.5 15.75 0.5C16.1642 0.5 16.5 0.835786 16.5 1.25V4.25C16.5 4.66421 16.1642 5 15.75 5H12.75C12.3358 5 12 4.66421 12 4.25C12 3.83579 12.3358 3.5 12.75 3.5H14.0991C12.7609 2.25883 10.9691 1.5 9 1.5Z" fill="#334155"/>
</svg>
