<svg width="19" height="19" viewBox="0 0 19 19" fill="none" xmlns="http://www.w3.org/2000/svg">
<path d="M7.5 0.75C11.5041 0.75 14.75 3.99594 14.75 8C14.75 9.73187 14.1427 11.3219 13.1295 12.5688L18.0303 17.4697C18.3232 17.7626 18.3232 18.2374 18.0303 18.5303C17.7641 18.7966 17.3474 18.8208 17.0538 18.6029L16.9697 18.5303L12.0688 13.6295C10.8219 14.6427 9.23187 15.25 7.5 15.25C3.49594 15.25 0.25 12.0041 0.25 8C0.25 3.99594 3.49594 0.75 7.5 0.75ZM7.5 2.25C4.32436 2.25 1.75 4.82436 1.75 8C1.75 11.1756 4.32436 13.75 7.5 13.75C10.6756 13.75 13.25 11.1756 13.25 8C13.25 4.82436 10.6756 2.25 7.5 2.25Z" fill="white"/>
</svg>
