<svg width="17" height="16" viewBox="0 0 17 16" fill="none" xmlns="http://www.w3.org/2000/svg">
<path d="M12 5C12.5523 5 13 4.55228 13 4C13 3.44772 12.5523 3 12 3C11.4477 3 11 3.44772 11 4C11 4.55228 11.4477 5 12 5ZM9.12922 4.30281e-05C8.59514 -0.00345791 8.08184 0.206807 7.7037 0.583987L1.02216 7.24852C0.239412 8.02928 0.238604 9.297 1.02036 10.0788L5.96875 15.0271C6.7498 15.8082 8.01613 15.8082 8.79718 15.0271L15.428 8.39633C15.8038 8.02054 16.0146 7.51063 16.0138 6.97917L16.0065 2.02911C16.0049 0.930807 15.1179 0.0393006 14.0196 0.032101L9.12922 4.30281e-05ZM8.4099 1.29199C8.59897 1.1034 8.85562 0.998271 9.12266 1.00002L14.013 1.03208C14.5622 1.03568 15.0057 1.48143 15.0065 2.03058L15.0138 6.98065C15.0142 7.24637 14.9088 7.50133 14.7209 7.68923L8.09007 14.32C7.69955 14.7106 7.06638 14.7106 6.67586 14.32L1.72746 9.37164C1.33659 8.98077 1.33699 8.34691 1.72836 7.95653L8.4099 1.29199Z" fill="#1E293B"/>
</svg>
