<svg width="23" height="23" viewBox="0 0 23 23" fill="none" xmlns="http://www.w3.org/2000/svg">
<path d="M7.05 0.357422H18.95C21.0763 0.357422 22.8 2.08113 22.8 4.20742V16.1074C22.8 18.2337 21.0763 19.9574 18.95 19.9574H13.1699L11.7699 18.5574H18.95C20.3031 18.5574 21.4 17.4605 21.4 16.1074V4.20742C21.4 2.85432 20.3031 1.75742 18.95 1.75742H7.05C5.6969 1.75742 4.6 2.85432 4.6 4.20742V8.79587C4.11458 8.84953 3.64578 8.95834 3.2 9.1159V4.20742C3.2 2.08113 4.92371 0.357422 7.05 0.357422ZM12.3 15.7574C11.9134 15.7574 11.6 15.444 11.6 15.0574C11.6 14.6708 11.9134 14.3574 12.3 14.3574H17.9C18.2866 14.3574 18.6 14.6708 18.6 15.0574C18.6 15.444 18.2866 15.7574 17.9 15.7574H12.3ZM9.5 6.30742C9.5 6.88732 9.0299 7.35742 8.45 7.35742C7.8701 7.35742 7.4 6.88732 7.4 6.30742C7.4 5.72752 7.8701 5.25742 8.45 5.25742C9.0299 5.25742 9.5 5.72752 9.5 6.30742ZM12.3 5.95742C11.9134 5.95742 11.6 6.27082 11.6 6.65742C11.6 7.04402 11.9134 7.35742 12.3 7.35742H17.9C18.2866 7.35742 18.6 7.04402 18.6 6.65742C18.6 6.27082 18.2866 5.95742 17.9 5.95742H12.3ZM12.3 10.1574C11.9134 10.1574 11.6 10.4708 11.6 10.8574C11.6 11.244 11.9134 11.5574 12.3 11.5574H17.9C18.2866 11.5574 18.6 11.244 18.6 10.8574C18.6 10.4708 18.2866 10.1574 17.9 10.1574H12.3ZM5.3 19.9574C6.40068 19.9574 7.41659 19.5945 8.23461 18.9818L11.805 22.5523C12.0784 22.8257 12.5216 22.8257 12.795 22.5524C13.0683 22.279 13.0683 21.8358 12.795 21.5624L9.22454 17.9918C9.83715 17.1739 10.2 16.158 10.2 15.0574C10.2 12.3512 8.0062 10.1574 5.3 10.1574C2.59381 10.1574 0.400002 12.3512 0.400002 15.0574C0.400002 17.7636 2.59381 19.9574 5.3 19.9574ZM5.3 18.5574C3.36701 18.5574 1.8 16.9904 1.8 15.0574C1.8 13.1244 3.36701 11.5574 5.3 11.5574C7.233 11.5574 8.8 13.1244 8.8 15.0574C8.8 16.9904 7.233 18.5574 5.3 18.5574Z" fill="#334155"/>
</svg>
