<svg width="24" height="24" viewBox="0 0 24 24" fill="none" xmlns="http://www.w3.org/2000/svg">
<path d="M6.89995 3.60001H17.1C18.9225 3.60001 20.4 5.07747 20.4 6.90001V17.1C20.4 18.9225 18.9225 20.4 17.1 20.4H12.1455L10.9455 19.2H17.1C18.2597 19.2 19.2 18.2598 19.2 17.1V6.90001C19.2 5.74021 18.2597 4.80001 17.1 4.80001H6.89995C5.74015 4.80001 4.79995 5.74021 4.79995 6.90001V10.833C4.38387 10.879 3.98204 10.9722 3.59995 11.1073V6.90001C3.59995 5.07747 5.07741 3.60001 6.89995 3.60001ZM11.4 16.8C11.0686 16.8 10.8 16.5314 10.8 16.2C10.8 15.8686 11.0686 15.6 11.4 15.6H16.2C16.5313 15.6 16.8 15.8686 16.8 16.2C16.8 16.5314 16.5313 16.8 16.2 16.8H11.4ZM8.99995 8.70001C8.99995 9.19706 8.59701 9.60001 8.09995 9.60001C7.6029 9.60001 7.19995 9.19706 7.19995 8.70001C7.19995 8.20295 7.6029 7.80001 8.09995 7.80001C8.59701 7.80001 8.99995 8.20295 8.99995 8.70001ZM11.4 8.40001C11.0686 8.40001 10.8 8.66864 10.8 9.00001C10.8 9.33138 11.0686 9.60001 11.4 9.60001H16.2C16.5313 9.60001 16.8 9.33138 16.8 9.00001C16.8 8.66864 16.5313 8.40001 16.2 8.40001H11.4ZM11.4 12C11.0686 12 10.8 12.2686 10.8 12.6C10.8 12.9314 11.0686 13.2 11.4 13.2H16.2C16.5313 13.2 16.8 12.9314 16.8 12.6C16.8 12.2686 16.5313 12 16.2 12H11.4ZM5.39995 20.4C6.34339 20.4 7.21417 20.0889 7.91533 19.5638L10.9757 22.6242C11.21 22.8585 11.5899 22.8585 11.8242 22.6242C12.0585 22.3899 12.0585 22.01 11.8242 21.7757L8.76384 18.7152C9.28893 18.0141 9.59995 17.1434 9.59995 16.2C9.59995 13.8804 7.71955 12 5.39995 12C3.08036 12 1.19995 13.8804 1.19995 16.2C1.19995 18.5196 3.08036 20.4 5.39995 20.4ZM5.39995 19.2C3.7431 19.2 2.39995 17.8569 2.39995 16.2C2.39995 14.5432 3.7431 13.2 5.39995 13.2C7.05681 13.2 8.39995 14.5432 8.39995 16.2C8.39995 17.8569 7.05681 19.2 5.39995 19.2Z" fill="#334155"/>
</svg>
