<svg width="18" height="17" viewBox="0 0 18 17" fill="none" xmlns="http://www.w3.org/2000/svg">
<path d="M9 1.75C6.92893 1.75 5.25 3.42893 5.25 5.5C5.25 5.84518 4.97018 6.125 4.625 6.125H4.3125C2.7592 6.125 1.5 7.3842 1.5 8.9375C1.5 10.4908 2.7592 11.75 4.3125 11.75H5.27803C5.31671 12.1793 5.39485 12.5971 5.50879 13H4.3125C2.06884 13 0.25 11.1812 0.25 8.9375C0.25 6.78625 1.92211 5.02554 4.03755 4.88416C4.34104 2.41328 6.44708 0.5 9 0.5C11.412 0.5 13.4251 2.20785 13.8959 4.48024C13.4598 4.36431 13.0066 4.29017 12.541 4.26238C12.0297 2.79943 10.6374 1.75 9 1.75ZM17.75 11.125C17.75 14.2316 15.2316 16.75 12.125 16.75C9.0184 16.75 6.5 14.2316 6.5 11.125C6.5 8.0184 9.0184 5.5 12.125 5.5C15.2316 5.5 17.75 8.0184 17.75 11.125ZM11.6826 8.18356L9.18306 10.6831C8.93898 10.9271 8.93898 11.3229 9.18306 11.5669C9.42714 11.811 9.82286 11.811 10.0669 11.5669L11.5 10.1339V13.625C11.5 13.9702 11.7798 14.25 12.125 14.25C12.4702 14.25 12.75 13.9702 12.75 13.625V10.1339L14.1831 11.5669C14.4271 11.811 14.8229 11.811 15.0669 11.5669C15.311 11.3229 15.311 10.9271 15.0669 10.6831L12.5669 8.18306C12.507 8.12314 12.438 8.07792 12.3642 8.04742C12.2916 8.01732 12.2121 8.0005 12.1287 8.00001L12.125 8L12.1213 8.00001C12.0379 8.0005 11.9584 8.01732 11.8858 8.04742C11.8131 8.07747 11.745 8.1218 11.6857 8.18042L11.6826 8.18356Z" fill="white"/>
</svg>
