<svg width="29" height="29" viewBox="0 0 29 29" fill="none" xmlns="http://www.w3.org/2000/svg">
<path d="M15.3333 16.7338V16.6669H3.67038C2.01435 16.6669 0.671875 18.0094 0.671875 19.6655V20.4357C0.671875 21.6261 1.09657 22.7774 1.86958 23.6826C3.95799 26.1282 7.13934 27.3351 11.3338 27.3351C11.8105 27.3351 12.2741 27.3196 12.7245 27.2883C12.6865 27.087 12.6667 26.8794 12.6667 26.667V25.2877C12.2386 25.3193 11.7944 25.3351 11.3338 25.3351C7.68275 25.3351 5.06158 24.3408 3.3905 22.3838C2.92669 21.8407 2.67188 21.1499 2.67188 20.4357V19.6655C2.67188 19.114 3.11892 18.6669 3.67038 18.6669H12.9441C13.3726 17.6864 14.2592 16.9518 15.3333 16.7338ZM11.3338 0.673218C15.0157 0.673218 18.0005 3.65799 18.0005 7.33988C18.0005 11.0218 15.0157 14.0066 11.3338 14.0066C7.65192 14.0066 4.66715 11.0218 4.66715 7.33988C4.66715 3.65799 7.65192 0.673218 11.3338 0.673218ZM11.3338 2.67322C8.75649 2.67322 6.66715 4.76256 6.66715 7.33988C6.66715 9.91721 8.75649 12.0066 11.3338 12.0066C13.9111 12.0066 16.0005 9.91721 16.0005 7.33988C16.0005 4.76256 13.9111 2.67322 11.3338 2.67322ZM16.6667 18.0004H16C14.8954 18.0004 14 18.8959 14 20.0004V26.667C14 27.7716 14.8954 28.667 16 28.667H26.6667C27.7712 28.667 28.6667 27.7716 28.6667 26.667V20.0004C28.6667 18.8959 27.7712 18.0004 26.6667 18.0004H26V16.3337C26 15.045 24.9554 14.0004 23.6667 14.0004H19C17.7113 14.0004 16.6667 15.045 16.6667 16.3337V18.0004ZM18.6667 16.3337C18.6667 16.1496 18.8159 16.0004 19 16.0004H23.6667C23.8508 16.0004 24 16.1496 24 16.3337V18.0004H18.6667V16.3337Z" fill="#555F6D"/>
</svg>
