<svg width="20" height="21" viewBox="0 0 20 21" fill="none" xmlns="http://www.w3.org/2000/svg">
<path d="M8.99998 0.4C6.34901 0.4 4.19998 2.54903 4.19998 5.2C4.19998 7.85097 6.34901 10 8.99998 10C11.6509 10 13.8 7.85097 13.8 5.2C13.8 2.54903 11.6509 0.4 8.99998 0.4ZM3.01045 11.2C1.68376 11.2 0.599976 12.2642 0.599976 13.6C0.599976 15.6294 1.59935 17.1596 3.16197 18.1559C4.41984 18.9579 6.03579 19.4139 7.79998 19.5535V18.4C7.79998 17.9075 7.99419 17.465 8.32957 17.1296L11.4252 14.034C11.4086 13.8634 11.4 13.6936 11.4 13.525C11.4 12.8734 11.5306 12.2466 11.7987 11.6585C11.8706 11.5007 11.95 11.3478 12.0367 11.2L3.01045 11.2ZM9.1781 20.6219C9.29685 20.7406 9.43748 20.8 9.59998 20.8H12C12.1375 20.7937 12.2469 20.7656 12.3281 20.7156C12.4094 20.6656 12.4687 20.5969 12.5062 20.5094C12.5437 20.4219 12.5687 20.3281 12.5812 20.2281C12.5937 20.1281 12.6 20.025 12.6 19.9187V19.6C12.8875 19.5937 13.1125 19.5844 13.275 19.5719C13.4375 19.5594 13.5594 19.5125 13.6406 19.4312C13.7219 19.35 13.7687 19.2312 13.7812 19.075C13.7937 18.9187 13.8 18.6937 13.8 18.4H14.4C14.5312 18.4 14.6375 18.3719 14.7187 18.3156C14.8 18.2594 14.8625 18.1906 14.9062 18.1094C14.95 18.0281 14.9781 17.9344 14.9906 17.8281C15.0031 17.7219 15.0094 17.6125 15.0094 17.5C15.0031 17.4062 15 17.3156 15 17.2281V16.9937C15.2062 17.0687 15.4156 17.1219 15.6281 17.1531C15.8406 17.1844 16.0562 17.2 16.275 17.2C16.775 17.1937 17.2344 17.0969 17.6531 16.9094C18.0719 16.7219 18.4437 16.4594 18.7687 16.1219C19.0937 15.7844 19.3469 15.4 19.5281 14.9687C19.7094 14.5375 19.8 14.0812 19.8 13.6C19.8 13.1 19.7062 12.6312 19.5187 12.1937C19.3312 11.7562 19.075 11.375 18.75 11.05C18.425 10.725 18.0437 10.4687 17.6062 10.2812C17.1687 10.0937 16.7 10 16.2 10C15.7125 10.0125 15.2531 10.1062 14.8219 10.2812C14.3906 10.4562 14.0094 10.7062 13.6781 11.0312C13.3469 11.3562 13.0844 11.7312 12.8906 12.1562C12.6969 12.5812 12.6 13.0375 12.6 13.525C12.6 13.8187 12.6344 14.1281 12.7031 14.4531L9.1781 17.9781C9.05935 18.0969 8.99998 18.2375 8.99998 18.4V20.2C8.99998 20.3625 9.05935 20.5031 9.1781 20.6219ZM17.7375 12.0625C17.9125 12.2375 18 12.45 18 12.7C18 12.95 17.9125 13.1625 17.7375 13.3375C17.5625 13.5125 17.35 13.6 17.1 13.6C16.85 13.6 16.6375 13.5125 16.4625 13.3375C16.2875 13.1625 16.2 12.95 16.2 12.7C16.2 12.45 16.2875 12.2375 16.4625 12.0625C16.6375 11.8875 16.85 11.8 17.1 11.8C17.35 11.8 17.5625 11.8875 17.7375 12.0625Z" fill="white"/>
</svg>
