<svg width="24" height="25" viewBox="0 0 24 25" fill="none" xmlns="http://www.w3.org/2000/svg">
<path d="M23.7609 7.84946C23.7609 7.84946 23.5266 6.19478 22.8047 5.46821C21.8906 4.51196 20.8688 4.50728 20.4 4.45103C17.0438 4.20728 12.0047 4.20728 12.0047 4.20728H11.9953C11.9953 4.20728 6.95625 4.20728 3.6 4.45103C3.13125 4.50728 2.10938 4.51196 1.19531 5.46821C0.473438 6.19478 0.24375 7.84946 0.24375 7.84946C0.24375 7.84946 0 9.79478 0 11.7354V13.5541C0 15.4948 0.239062 17.4401 0.239062 17.4401C0.239062 17.4401 0.473437 19.0948 1.19062 19.8213C2.10469 20.7776 3.30469 20.7448 3.83906 20.8479C5.76094 21.0307 12 21.087 12 21.087C12 21.087 17.0438 21.0776 20.4 20.8385C20.8688 20.7823 21.8906 20.7776 22.8047 19.8213C23.5266 19.0948 23.7609 17.4401 23.7609 17.4401C23.7609 17.4401 24 15.4995 24 13.5541V11.7354C24 9.79478 23.7609 7.84946 23.7609 7.84946ZM9.52031 15.762V9.01665L16.0031 12.401L9.52031 15.762Z" fill="white"/>
</svg>
